<svg width="15" height="17" viewBox="0 0 15 17" fill="none" xmlns="http://www.w3.org/2000/svg">
<path fill-rule="evenodd" clip-rule="evenodd" d="M7.20795 0.667969C10.9988 0.667969 14.0829 3.77547 14.0829 7.59547C14.0829 12.2913 8.70295 16.918 7.20795 16.918C5.71295 16.918 0.332947 12.2913 0.332947 7.59547C0.332947 3.77547 3.41711 0.667969 7.20795 0.667969ZM7.20795 1.91797C4.10628 1.91797 1.58295 4.46547 1.58295 7.59547C1.58295 11.578 6.26961 15.458 7.20795 15.6646C8.14628 15.4571 12.8329 11.5771 12.8329 7.59547C12.8329 4.46547 10.3096 1.91797 7.20795 1.91797ZM7.20878 4.83464C8.70211 4.83464 9.91711 6.04964 9.91711 7.5438C9.91711 9.03714 8.70211 10.2513 7.20878 10.2513C5.71545 10.2513 4.50045 9.03714 4.50045 7.5438C4.50045 6.04964 5.71545 4.83464 7.20878 4.83464ZM7.20878 6.08464C6.40461 6.08464 5.75045 6.7388 5.75045 7.5438C5.75045 8.34797 6.40461 9.0013 7.20878 9.0013C8.01295 9.0013 8.66711 8.34797 8.66711 7.5438C8.66711 6.7388 8.01295 6.08464 7.20878 6.08464Z" fill="currentColor"/>
</svg>
