<svg width="73" height="19" viewBox="0 0 73 19" fill="none" xmlns="http://www.w3.org/2000/svg">
<path d="M8.34203 3.57264V1.28906H1.14203V16.9786H8.34203V14.695C6.8671 14.695 5.45257 14.1091 4.40967 13.0662C3.36674 12.0232 2.78083 10.6088 2.78083 9.13384C2.78083 7.65892 3.36674 6.24439 4.40967 5.20148C5.45257 4.15856 6.8671 3.57264 8.34203 3.57264Z" fill="#D1D1D1"/>
<path d="M8.34204 3.57324V14.6956C9.81697 14.6956 11.2315 14.1097 12.2744 13.0668C13.3173 12.0238 13.9032 10.6094 13.9032 9.13444C13.9032 7.65952 13.3173 6.24498 12.2744 5.20208C11.2315 4.15916 9.81697 3.57324 8.34204 3.57324Z" fill="#D1D1D1"/>
<path d="M17.9438 4.96973H19.5557V12.7339H17.9438V4.96973Z" fill="#D1D1D1"/>
<path d="M20.4584 10.0747C20.4584 9.51615 20.6243 8.97013 20.935 8.50589C21.2457 8.04166 21.6872 7.6801 22.2036 7.46705C22.72 7.25406 23.288 7.19915 23.8356 7.3093C24.3833 7.41945 24.8859 7.68971 25.2797 8.08582C25.6736 8.48198 25.941 8.98609 26.048 9.53437C26.155 10.0826 26.0969 10.6503 25.8809 11.1655C25.6649 11.6806 25.3008 12.1201 24.8348 12.4281C24.3688 12.7361 23.8218 12.8988 23.2632 12.8956C22.8927 12.8985 22.5254 12.8275 22.1827 12.6865C21.8401 12.5455 21.529 12.3376 21.2677 12.0749C21.0065 11.8121 20.8004 11.4999 20.6614 11.1564C20.5224 10.813 20.4534 10.4452 20.4584 10.0747ZM24.499 10.0747C24.4927 9.83392 24.4155 9.60029 24.2771 9.40315C24.1387 9.20596 23.9452 9.05395 23.7209 8.96616C23.4965 8.87836 23.2513 8.85864 23.0158 8.90952C22.7803 8.96035 22.5651 9.07948 22.397 9.25206C22.2288 9.42459 22.1153 9.64285 22.0706 9.87959C22.0259 10.1163 22.052 10.361 22.1456 10.5829C22.2392 10.8049 22.3961 10.9944 22.5968 11.1276C22.7975 11.2609 23.033 11.3319 23.274 11.3321C23.438 11.3353 23.6009 11.3046 23.7526 11.2419C23.9042 11.1794 24.0413 11.0861 24.1552 10.9681C24.2692 10.8501 24.3576 10.7098 24.4149 10.5562C24.4722 10.4024 24.4972 10.2386 24.4883 10.0747H24.499Z" fill="#D1D1D1"/>
<path d="M32.4459 7.41525V12.4714C32.4459 14.2552 31.0489 15.0129 29.6358 15.0129C29.1373 15.0537 28.6373 14.9547 28.1922 14.7269C27.747 14.4991 27.3742 14.1515 27.1158 13.7233L28.4752 12.9388C28.5853 13.161 28.7605 13.3442 28.9775 13.4642C29.1945 13.5841 29.4428 13.6352 29.6895 13.6105C29.8467 13.6298 30.0061 13.6142 30.1565 13.5648C30.307 13.5153 30.4446 13.4333 30.5596 13.3244C30.6746 13.2155 30.7641 13.0827 30.8218 12.9352C30.8794 12.7877 30.9038 12.6293 30.8931 12.4714V11.9824C30.7055 12.2099 30.4675 12.3904 30.198 12.5098C29.9284 12.6292 29.6348 12.6841 29.3403 12.6702C28.6277 12.6702 27.9444 12.3871 27.4406 11.8833C26.9367 11.3795 26.6537 10.6961 26.6537 9.9836C26.6537 9.27107 26.9367 8.58777 27.4406 8.08393C27.9444 7.58009 28.6277 7.29704 29.3403 7.29704C29.6348 7.28312 29.9284 7.33803 30.198 7.45742C30.4675 7.57682 30.7055 7.75735 30.8931 7.9848V7.44748L32.4459 7.41525ZM30.8931 9.96748C30.9038 9.71043 30.8374 9.45602 30.7023 9.23701C30.5673 9.018 30.3699 8.84439 30.1354 8.73849C29.9009 8.63258 29.6401 8.59927 29.3865 8.64279C29.133 8.68631 28.8982 8.80468 28.7124 8.9827C28.5267 9.16071 28.3984 9.39025 28.3441 9.64176C28.2899 9.89328 28.3121 10.1552 28.4079 10.394C28.5037 10.6328 28.6688 10.8374 28.8818 10.9817C29.0949 11.1259 29.3463 11.2031 29.6035 11.2033C29.7714 11.2154 29.94 11.1921 30.0983 11.1351C30.2566 11.0779 30.4013 10.9883 30.5228 10.8718C30.6443 10.7553 30.7401 10.6147 30.8038 10.4589C30.8676 10.3031 30.898 10.1357 30.8931 9.96748Z" fill="#D1D1D1"/>
<path d="M33.3539 10.0748C33.3539 9.51665 33.5195 8.97106 33.8297 8.50704C34.1399 8.04302 34.5808 7.68146 35.0966 7.46814C35.6123 7.25478 36.1798 7.19922 36.7271 7.30851C37.2745 7.4178 37.7771 7.68699 38.1714 8.08202C38.5657 8.47711 38.834 8.98025 38.9422 9.52777C39.0504 10.0753 38.9938 10.6427 38.7795 11.158C38.5651 11.6734 38.2027 12.1136 37.7382 12.4229C37.2735 12.7323 36.7276 12.8968 36.1695 12.8957C35.7983 12.8993 35.4301 12.8288 35.0865 12.6882C34.743 12.5476 34.4309 12.3399 34.1687 12.0772C33.9064 11.8144 33.6993 11.502 33.5594 11.1581C33.4195 10.8143 33.3496 10.446 33.3539 10.0748ZM37.3945 10.0748C37.3882 9.83377 37.3108 9.59993 37.1722 9.40263C37.0336 9.20539 36.8398 9.05338 36.6151 8.96574C36.3905 8.87811 36.145 8.85871 35.9094 8.91002C35.6737 8.96128 35.4585 9.081 35.2906 9.25407C35.1227 9.42713 35.0096 9.64593 34.9655 9.88299C34.9214 10.1201 34.9482 10.3649 35.0426 10.5867C35.137 10.8086 35.2948 10.9977 35.4963 11.1303C35.6977 11.2629 35.9337 11.3331 36.1748 11.3321C36.3389 11.3353 36.5018 11.3047 36.6534 11.242C36.8051 11.1794 36.9421 11.0862 37.0561 10.9682C37.1701 10.8502 37.2584 10.7099 37.3158 10.5562C37.3731 10.4025 37.3981 10.2386 37.3892 10.0748H37.3945Z" fill="#D1D1D1"/>
<path d="M39.7319 5.9906C39.7319 5.80146 39.788 5.61652 39.8931 5.45925C39.9982 5.30196 40.1475 5.17937 40.3223 5.10698C40.4971 5.03459 40.6894 5.01565 40.8749 5.05256C41.0604 5.08946 41.2308 5.18055 41.3646 5.31431C41.4983 5.44807 41.5894 5.61851 41.6263 5.80399C41.6632 5.98952 41.6443 6.18183 41.5719 6.35662C41.4995 6.53135 41.3769 6.68072 41.2196 6.78582C41.0624 6.89092 40.8775 6.94702 40.6883 6.94702C40.4355 6.94422 40.1939 6.84256 40.0151 6.6638C39.8363 6.48503 39.7347 6.2434 39.7319 5.9906ZM39.8877 7.41448H41.4996V12.7339H39.8877V7.41448Z" fill="#D1D1D1"/>
<path d="M48.3987 10.0743C48.4168 10.4281 48.3647 10.782 48.2455 11.1155C48.1263 11.4491 47.9423 11.7558 47.7041 12.0179C47.4659 12.2802 47.1782 12.4926 46.8575 12.6432C46.5369 12.7937 46.1896 12.8794 45.8358 12.8952C45.5355 12.9152 45.2345 12.8671 44.9554 12.7545C44.6763 12.6419 44.4262 12.4678 44.2238 12.2451V14.8725H42.6119V7.41462H44.2238V7.91432C44.4265 7.69225 44.6768 7.51891 44.9559 7.40726C45.235 7.29555 45.5358 7.24848 45.8358 7.26955C46.1882 7.2854 46.5341 7.37056 46.8536 7.52009C47.1732 7.66963 47.4602 7.88069 47.6981 8.14112C47.9362 8.40156 48.1205 8.70632 48.2407 9.03806C48.3609 9.36974 48.4146 9.72184 48.3987 10.0743ZM46.7868 10.0743C46.7805 9.82474 46.7006 9.58263 46.5572 9.37828C46.4139 9.17394 46.2133 9.0164 45.9808 8.92554C45.7483 8.83463 45.4942 8.81443 45.2502 8.86735C45.0063 8.92028 44.7834 9.04408 44.6094 9.22316C44.4355 9.40225 44.3183 9.62867 44.2726 9.87412C44.2268 10.1195 44.2545 10.373 44.3522 10.6027C44.4499 10.8324 44.6132 11.0282 44.8216 11.1656C45.0301 11.3029 45.2745 11.3756 45.5241 11.3746C45.6951 11.3819 45.8657 11.3529 46.0247 11.2896C46.1837 11.2263 46.3276 11.1301 46.4468 11.0074C46.566 10.8846 46.6579 10.738 46.7165 10.5772C46.7751 10.4164 46.7991 10.245 46.7868 10.0743Z" fill="#D1D1D1"/>
<path d="M53.3044 11.1386C53.3044 12.3636 52.2298 12.8848 51.0907 12.8848C50.626 12.9266 50.1596 12.8282 49.7516 12.6021C49.3435 12.3761 49.0126 12.0328 48.8017 11.6168L50.188 10.8323C50.2429 11.024 50.3619 11.1911 50.5253 11.3055C50.6886 11.42 50.8863 11.4748 51.0853 11.461C51.4668 11.461 51.6602 11.3428 51.6602 11.1278C51.6602 10.5422 49.0435 10.8538 49.0435 9.01081C49.0435 7.85022 50.0214 7.26992 51.1283 7.26992C51.549 7.25106 51.967 7.34654 52.3378 7.54615C52.7087 7.74576 53.0185 8.04209 53.2345 8.40365L51.8483 9.13439C51.787 8.99577 51.687 8.87788 51.5602 8.79492C51.4333 8.71196 51.2852 8.66752 51.1336 8.66693C50.8542 8.66693 50.6877 8.77439 50.6877 8.96245C50.6877 9.57499 53.3044 9.17201 53.3044 11.1386Z" fill="#D1D1D1"/>
<path d="M59.145 7.41504V12.7344H57.5331V12.2347C57.3498 12.456 57.1172 12.631 56.8544 12.7458C56.5912 12.8606 56.3048 12.9119 56.0178 12.8956C54.9432 12.8956 54.0244 12.1273 54.0244 10.6927V7.41504H55.6364V10.4509C55.6235 10.5778 55.6385 10.7059 55.6804 10.8265C55.7223 10.947 55.7895 11.0571 55.8776 11.149C55.9663 11.241 56.0737 11.3127 56.1925 11.3591C56.3112 11.4056 56.4386 11.4257 56.5659 11.418C57.1462 11.418 57.5546 11.0741 57.5546 10.3434V7.41504H59.145Z" fill="#D1D1D1"/>
<path d="M68.2794 9.46773V12.7346H66.6674V9.60743C66.6674 9.07012 66.4149 8.73698 65.9044 8.73698C65.394 8.73698 65.0716 9.10773 65.0716 9.73639V12.7346H63.4597V9.60743C63.4597 9.07012 63.2071 8.73698 62.6967 8.73698C62.1862 8.73698 61.8638 9.10773 61.8638 9.73639V12.7346H60.2519V7.41519H61.8638V7.90415C62.0309 7.68815 62.2485 7.51707 62.4984 7.40638C62.7477 7.29569 63.0212 7.24884 63.2931 7.27012C63.5655 7.25588 63.8374 7.31283 64.0813 7.43529C64.3253 7.55774 64.5332 7.74156 64.6847 7.96862C64.862 7.73135 65.0963 7.54286 65.366 7.42073C65.6352 7.29854 65.9318 7.24674 66.2268 7.27012C67.4841 7.27012 68.2794 8.14057 68.2794 9.46773Z" fill="#D1D1D1"/>
<path d="M69.6334 7.38273C70.2862 7.38273 70.8155 6.85348 70.8155 6.20064C70.8155 5.54781 70.2862 5.01855 69.6334 5.01855C68.9806 5.01855 68.4513 5.54781 68.4513 6.20064C68.4513 6.85348 68.9806 7.38273 69.6334 7.38273Z" fill="#D1D1D1"/>
</svg>
