<svg width="73" height="20" viewBox="0 0 73 20" fill="none" xmlns="http://www.w3.org/2000/svg">
<path d="M16.6878 6.68164C16.8842 6.68164 16.9496 6.75255 16.9496 6.94346V11.2635H19.1696C19.3605 11.2635 19.4314 11.3344 19.4314 11.5253V11.9071C19.4314 12.098 19.3605 12.1689 19.1696 12.1689H16.246C16.0551 12.1689 15.9787 12.098 15.9787 11.9071V6.94346C15.9787 6.75255 16.0551 6.68164 16.246 6.68164H16.6878Z" fill="#D1D1D1"/>
<path d="M21.3678 8.58556C21.3678 7.32556 22.1642 6.56738 23.5496 6.56738C24.9351 6.56738 25.7314 7.32556 25.7314 8.58556V10.2656C25.7314 11.5256 24.9296 12.2837 23.5496 12.2837C22.1696 12.2837 21.3678 11.5256 21.3678 10.2656V8.58556ZM24.8151 8.58556C24.8151 7.87647 24.3733 7.49466 23.5769 7.49466C22.7805 7.49466 22.3442 7.88193 22.3442 8.58556V10.2765C22.3442 10.991 22.7805 11.3674 23.5769 11.3674C24.3733 11.3674 24.8151 10.9747 24.8151 10.2765V8.58556Z" fill="#D1D1D1"/>
<path d="M32.2278 9.16408C32.4405 9.16408 32.4896 9.23499 32.4896 9.4259V10.4623C32.4954 10.7064 32.4465 10.9487 32.3464 11.1714C32.2464 11.3942 32.0978 11.5917 31.9114 11.7495C31.4487 12.118 30.8653 12.3008 30.2751 12.2623C28.8624 12.2623 28.0933 11.5041 28.0933 10.2441V8.55317C28.0933 7.30954 28.8896 6.5459 30.2751 6.5459C31.366 6.5459 32.0751 6.97681 32.3751 7.83863C32.3919 7.87103 32.4009 7.90686 32.4014 7.9433C32.4019 7.97979 32.3938 8.0159 32.378 8.04868C32.3621 8.08152 32.3388 8.11021 32.3098 8.13246C32.2809 8.15466 32.2472 8.16988 32.2114 8.17681L31.786 8.32408C31.6005 8.38953 31.5242 8.35135 31.4587 8.16044C31.3683 7.92748 31.2029 7.73123 30.9885 7.60283C30.7742 7.47443 30.5232 7.42108 30.2751 7.45135C29.4733 7.45135 29.0369 7.83863 29.0369 8.54226V10.2768C29.0369 10.9914 29.4787 11.3677 30.2751 11.3677C31.0714 11.3677 31.5624 11.0023 31.5624 10.4677V10.0641H30.3787C30.1824 10.0641 30.1114 9.98772 30.1114 9.79681V9.4259C30.1114 9.23499 30.1824 9.16408 30.3787 9.16408H32.2278Z" fill="#D1D1D1"/>
<path d="M34.7424 8.58556C34.7424 7.32556 35.5387 6.56738 36.9242 6.56738C38.3096 6.56738 39.106 7.32556 39.106 8.58556V10.2656C39.106 11.5256 38.3042 12.2837 36.9242 12.2837C35.5442 12.2837 34.7424 11.5256 34.7424 10.2656V8.58556ZM38.1842 8.58556C38.1842 7.87647 37.7424 7.49466 36.9515 7.49466C36.1606 7.49466 35.7133 7.88193 35.7133 8.58556V10.2765C35.7133 10.991 36.1551 11.3674 36.9515 11.3674C37.7478 11.3674 38.1842 10.9747 38.1842 10.2765V8.58556Z" fill="#D1D1D1"/>
<path d="M41.675 6.83982C41.675 6.71982 41.7132 6.68164 41.8332 6.68164H42.0841C42.2041 6.68164 42.2314 6.71982 42.2314 6.83982V12.0107C42.2314 12.1307 42.2314 12.1689 42.0841 12.1689H41.8332C41.7132 12.1689 41.675 12.1307 41.675 12.0107V6.83982Z" fill="#D1D1D1"/>
<path d="M47.2005 6.68164C47.6548 6.68164 48.0904 6.86208 48.4116 7.1833C48.7328 7.50446 48.9133 7.94011 48.9133 8.39437C48.9133 8.84862 48.7328 9.28428 48.4116 9.60544C48.0904 9.92666 47.6548 10.1071 47.2005 10.1071H45.5642V12.0107C45.5642 12.1307 45.5369 12.1689 45.4224 12.1689H45.166C45.0514 12.1689 45.0078 12.1307 45.0078 12.0107V6.83982C45.0078 6.71982 45.0514 6.68164 45.166 6.68164H47.2005ZM47.1514 9.5671C47.3076 9.5671 47.4622 9.53633 47.6065 9.4766C47.7507 9.41682 47.8819 9.32922 47.9923 9.21882C48.1027 9.10842 48.1903 8.9773 48.25 8.83308C48.3098 8.6888 48.3405 8.53417 48.3405 8.378C48.3405 8.22184 48.3098 8.0672 48.25 7.92293C48.1903 7.77871 48.1027 7.64759 47.9923 7.53719C47.8819 7.42679 47.7507 7.33919 47.6065 7.2794C47.4622 7.21968 47.3076 7.18891 47.1514 7.18891H45.5151V9.5671H47.1514Z" fill="#D1D1D1"/>
<path d="M53.1733 6.57243C53.5944 6.52596 54.0193 6.61656 54.3848 6.83076C54.7502 7.04501 55.0371 7.37141 55.2023 7.76152C55.246 7.84879 55.2023 7.9197 55.1151 7.96334L54.8751 8.07243C54.7769 8.11061 54.7387 8.10516 54.6787 8.00152C54.5551 7.71199 54.3427 7.46927 54.072 7.30847C53.8014 7.14767 53.4866 7.07708 53.1733 7.10698C52.2514 7.10698 51.7496 7.47243 51.7496 8.12698C51.7443 8.32699 51.8114 8.52227 51.9388 8.67663C52.0661 8.83099 52.2449 8.93414 52.4423 8.96698C52.7357 9.06265 53.0399 9.12128 53.3478 9.14152C53.7205 9.16138 54.0882 9.23676 54.4387 9.36516C54.7076 9.45019 54.9389 9.62507 55.0938 9.86048C55.2487 10.0959 55.318 10.3775 55.2896 10.6579C55.2896 11.6779 54.5478 12.2942 53.1842 12.2942C52.7369 12.3454 52.2856 12.2418 51.9055 12.0006C51.5253 11.7594 51.2393 11.3952 51.0951 10.9688C51.0854 10.9494 51.0802 10.928 51.0798 10.9063C51.0794 10.8846 51.0838 10.8631 51.0926 10.8433C51.1015 10.8235 51.1146 10.8059 51.1311 10.7918C51.1475 10.7776 51.1669 10.7673 51.1878 10.7615L51.4278 10.6742C51.4467 10.6665 51.467 10.6628 51.4874 10.6633C51.5078 10.6639 51.5279 10.6687 51.5464 10.6774C51.5648 10.6861 51.5813 10.6986 51.5947 10.714C51.6081 10.7294 51.6181 10.7474 51.6242 10.767C51.7462 11.0751 51.9632 11.3364 52.2436 11.5129C52.5241 11.6894 52.8536 11.7721 53.1842 11.7488C54.2151 11.7488 54.7223 11.3888 54.7223 10.6579C54.7322 10.4658 54.6733 10.2764 54.5562 10.1236C54.4394 9.97083 54.2721 9.86441 54.0842 9.82334C53.8019 9.73918 53.5109 9.6879 53.2169 9.67061L52.6278 9.59425C52.4434 9.55514 52.2614 9.50594 52.0824 9.44698C51.9055 9.39358 51.7407 9.30652 51.5969 9.19061C51.4522 9.05959 51.3381 8.89836 51.2627 8.7183C51.1873 8.53825 51.1524 8.34385 51.1605 8.14879C51.1987 7.19425 51.9133 6.57243 53.1733 6.57243Z" fill="#D1D1D1"/>
<path d="M58.2296 10.3035C58.2525 10.6892 58.4222 11.0515 58.7036 11.3165C58.9851 11.5814 59.3571 11.7289 59.7432 11.7289C60.1294 11.7289 60.5014 11.5814 60.7829 11.3165C61.0643 11.0515 61.2334 10.6892 61.2569 10.3035V6.83982C61.2569 6.71982 61.2951 6.68164 61.4151 6.68164H61.666C61.786 6.68164 61.8241 6.71982 61.8241 6.83982V10.298C61.8241 11.5362 61.0932 12.2835 59.746 12.2835C58.3987 12.2835 57.6678 11.5362 57.6678 10.298V6.83982C57.6678 6.71982 57.706 6.68164 57.8205 6.68164H58.0769C58.1914 6.68164 58.2296 6.71982 58.2296 6.83982V10.3035Z" fill="#D1D1D1"/>
<path d="M69.3515 6.68159C69.4715 6.68159 69.5096 6.71978 69.5096 6.83978V12.0107C69.5096 12.1307 69.4715 12.1689 69.3515 12.1689H69.1224C69.0078 12.1689 68.9696 12.1307 68.9696 12.0107V8.86341C68.9696 8.4055 69.0007 7.94809 69.0624 7.49432H69.0296C68.8595 7.90925 68.6604 8.31201 68.4351 8.69978L67.2624 10.767C67.2482 10.8029 67.2231 10.8336 67.1909 10.855C67.1587 10.8764 67.1211 10.8876 67.0824 10.887H66.9296C66.8904 10.8873 66.8522 10.876 66.8189 10.8547C66.7862 10.8334 66.76 10.8029 66.7442 10.767L65.5551 8.67796C65.344 8.29576 65.1618 7.89829 65.0096 7.48887H64.9769C65.0326 7.94678 65.062 8.40758 65.0642 8.86887V12.0107C65.0642 12.1307 65.026 12.1689 64.906 12.1689H64.6933C64.5733 12.1689 64.5351 12.1307 64.5351 12.0107V6.83978C64.5351 6.71978 64.5733 6.68159 64.6933 6.68159H64.8896C64.9344 6.67745 64.9796 6.68721 65.0184 6.70969C65.0576 6.73216 65.0887 6.76619 65.1078 6.80705L67.0169 10.1998L68.9151 6.83978C68.9751 6.72523 69.0078 6.70887 69.1278 6.70887L69.3515 6.68159Z" fill="#D1D1D1"/>
<path d="M6.98417 11.3404V15.284C6.98417 15.4352 6.92411 15.5802 6.81721 15.687C6.71035 15.7939 6.56537 15.854 6.41417 15.854C6.26302 15.854 6.11804 15.7939 6.01113 15.687C5.90422 15.5802 5.84417 15.4352 5.84417 15.284V11.3458C6.0029 11.4617 6.19315 11.5264 6.38962 11.5313C6.60377 11.5374 6.81361 11.47 6.98417 11.3404ZM11.8387 10.2004C11.6941 10.2004 11.5553 10.2578 11.453 10.3601C11.3508 10.4624 11.2933 10.6012 11.2933 10.7458V11.4331C11.2933 11.5843 11.3533 11.7293 11.4602 11.8361C11.5671 11.943 11.7121 12.0031 11.8633 12.0031C12.0145 12.0031 12.1594 11.943 12.2663 11.8361C12.3732 11.7293 12.4333 11.5843 12.4333 11.4331V10.7731C12.4375 10.6949 12.4249 10.6166 12.3962 10.5438C12.3675 10.4709 12.3235 10.405 12.267 10.3507C12.2106 10.2964 12.1431 10.2548 12.0693 10.2288C11.9954 10.2029 11.9167 10.1932 11.8387 10.2004ZM4.60599 12.8349C4.40972 12.829 4.21971 12.7644 4.06053 12.6494V16.604C4.06053 16.7559 4.12087 16.9016 4.22828 17.009C4.33569 17.1164 4.48136 17.1767 4.63326 17.1767C4.78516 17.1767 4.93083 17.1164 5.03824 17.009C5.14565 16.9016 5.20599 16.7559 5.20599 16.604V12.6767C5.02787 12.7919 4.81771 12.8473 4.60599 12.8349ZM10.0605 9.01672C9.98662 9.01301 9.91277 9.02441 9.84339 9.05015C9.77406 9.0759 9.71068 9.1155 9.65706 9.1665C9.6035 9.21756 9.5609 9.27892 9.53177 9.34694C9.5027 9.41496 9.4877 9.48821 9.48781 9.56217V12.6004C9.48781 12.7523 9.54813 12.898 9.65553 13.0054C9.76299 13.1128 9.90862 13.1731 10.0605 13.1731C10.2124 13.1731 10.3581 13.1128 10.4655 13.0054C10.5729 12.898 10.6333 12.7523 10.6333 12.6004V9.60036C10.6376 9.52165 10.6249 9.44294 10.5958 9.36963C10.5668 9.29632 10.5223 9.23016 10.4653 9.17572C10.4082 9.12128 10.3401 9.07983 10.2655 9.0543C10.191 9.02872 10.1117 9.01961 10.0333 9.02763L10.0605 9.01672ZM8.24962 10.184C8.04415 10.1826 7.84419 10.1178 7.6769 9.99854V13.964C7.6769 14.1159 7.73722 14.2616 7.84462 14.369C7.95208 14.4764 8.09771 14.5367 8.24962 14.5367C8.40153 14.5367 8.54717 14.4764 8.65462 14.369C8.76202 14.2616 8.82235 14.1159 8.82235 13.964V10.004C8.64933 10.1329 8.43808 10.2001 8.22235 10.1949L8.24962 10.184ZM3.36781 13.2222V2.14399C3.36637 2.00895 3.31172 1.87994 3.21572 1.78496C3.11972 1.68998 2.99012 1.63671 2.85508 1.63672H2.73508C2.60003 1.63671 2.47044 1.68998 2.37444 1.78496C2.27844 1.87994 2.22379 2.00895 2.22235 2.14399V13.2222C2.22235 13.3582 2.27637 13.4886 2.37253 13.5847C2.46868 13.6809 2.5991 13.7349 2.73508 13.7349H2.85508C2.99107 13.7349 3.12148 13.6809 3.21763 13.5847C3.31379 13.4886 3.36781 13.3582 3.36781 13.2222ZM4.66599 12.4149H4.54599C4.41001 12.4149 4.27959 12.3609 4.18343 12.2647C4.08728 12.1686 4.03326 12.0382 4.03326 11.9022V3.46399C4.0347 3.32896 4.08935 3.19994 4.18535 3.10496C4.28135 3.00998 4.41094 2.95671 4.54599 2.95672H4.66599C4.80103 2.95671 4.93063 3.00998 5.02663 3.10496C5.12263 3.19994 5.17728 3.32896 5.17871 3.46399V11.9131C5.17871 12.0491 5.12469 12.1795 5.02854 12.2756C4.93239 12.3718 4.80197 12.4258 4.66599 12.4258V12.4149ZM6.47144 11.1167H6.34599C6.21148 11.1167 6.08242 11.0633 5.9873 10.9681C5.89217 10.873 5.83871 10.744 5.83871 10.6094V4.77308C5.83801 4.70601 5.85061 4.63946 5.87575 4.57728C5.9009 4.5151 5.93815 4.45854 5.98533 4.41086C6.03251 4.36317 6.0887 4.32532 6.15061 4.29949C6.21252 4.27365 6.2789 4.26035 6.34599 4.26036H6.47144C6.6065 4.2618 6.7355 4.31644 6.83046 4.41244C6.92548 4.50844 6.97871 4.63804 6.97871 4.77308V10.6094C6.97871 10.744 6.92526 10.873 6.83013 10.9681C6.73501 11.0633 6.60601 11.1167 6.47144 11.1167ZM8.2769 9.78036H8.16235C8.0273 9.78036 7.8977 9.72712 7.8017 9.6321C7.7057 9.53714 7.65104 9.40814 7.64962 9.27308V6.13126C7.64515 6.06123 7.65508 5.99103 7.67886 5.92497C7.70259 5.85897 7.73968 5.79848 7.78773 5.74737C7.83579 5.69621 7.89382 5.65552 7.9583 5.6277C8.02271 5.59994 8.09215 5.58565 8.16235 5.58581H8.28235C8.41833 5.58581 8.54875 5.63981 8.64492 5.73597C8.74108 5.83214 8.79508 5.96256 8.79508 6.09854V9.26217C8.79579 9.32997 8.78308 9.39723 8.75761 9.46006C8.73219 9.5229 8.69455 9.58006 8.64682 9.62828C8.59915 9.67645 8.54242 9.71468 8.47981 9.74081C8.41724 9.76694 8.35015 9.78036 8.28235 9.78036H8.2769ZM10.0878 8.60763H9.96781C9.83182 8.60763 9.70141 8.55363 9.60524 8.45746C9.50908 8.3613 9.45508 8.23088 9.45508 8.0949V7.28217C9.4565 7.14712 9.51115 7.01812 9.60715 6.92316C9.70315 6.82814 9.83275 6.7749 9.96781 6.7749H10.0878C10.2229 6.7749 10.3525 6.82814 10.4485 6.92316C10.5445 7.01812 10.5991 7.14712 10.6005 7.28217V8.0949C10.6005 8.22996 10.5473 8.35956 10.4523 8.45555C10.3573 8.55156 10.2283 8.60621 10.0933 8.60763H10.0878Z" fill="#D1D1D1"/>
</svg>
