<svg width="73" height="16" viewBox="0 0 73 16" fill="none" xmlns="http://www.w3.org/2000/svg">
<path d="M11.5703 6.87684C11.3753 7.07294 11.2261 7.30961 11.1331 7.56994C11.0401 7.83033 11.0057 8.10799 11.0323 8.38318L11.0231 8.37392C11.0504 8.69787 11.0067 9.02383 10.895 9.32916C10.7834 9.63444 10.6065 9.91169 10.3766 10.1416C10.1468 10.3714 9.86951 10.5484 9.56418 10.66C9.2589 10.7716 8.93289 10.8153 8.60899 10.788L8.61825 10.7972C8.23079 10.7612 7.84163 10.8455 7.50379 11.0387C7.16601 11.2319 6.89601 11.5246 6.73067 11.8769C6.56533 12.2292 6.51261 12.6238 6.57978 13.0072C6.64699 13.3905 6.83075 13.7437 7.10605 14.0188C7.38134 14.2938 7.73476 14.4773 8.11811 14.5441C8.50151 14.6109 8.89612 14.5579 9.24825 14.3922C9.60038 14.2265 9.89281 13.9563 10.0857 13.6183C10.2786 13.2803 10.3626 12.8911 10.3262 12.5036L10.336 12.5129C10.3086 12.189 10.3523 11.863 10.4639 11.5577C10.5756 11.2524 10.7525 10.9751 10.9824 10.7452C11.2123 10.5154 11.4895 10.3384 11.7948 10.2268C12.1001 10.1152 12.4261 10.0715 12.75 10.0988L12.7403 10.0896C13.0567 10.118 13.3753 10.0661 13.6665 9.93869C13.9576 9.81125 14.2118 9.61238 14.4056 9.36053C14.5994 9.10868 14.7265 8.81194 14.7751 8.49792C14.8237 8.18384 14.7922 7.86262 14.6836 7.56392C14.575 7.26528 14.3927 6.99888 14.1537 6.78941C13.9147 6.57994 13.6267 6.43419 13.3164 6.36569C13.0061 6.29719 12.6835 6.30809 12.3785 6.39742C12.0735 6.4868 11.7961 6.65169 11.5718 6.87684H11.5703Z" fill="#D1D1D1"/>
<path d="M7.77639 9.58466L7.76662 9.5754C8.04192 9.60312 8.31994 9.56933 8.58063 9.47645C8.84127 9.38357 9.07805 9.23397 9.27379 9.03838C9.46947 8.8428 9.61933 8.60613 9.71237 8.34554C9.80545 8.08495 9.83945 7.80698 9.81193 7.53163L9.8217 7.54089C9.79434 7.21694 9.83806 6.89098 9.94966 6.58565C10.0613 6.28037 10.2383 6.00312 10.4681 5.77324C10.698 5.5434 10.9752 5.36644 11.2805 5.25484C11.5859 5.14316 11.9118 5.09949 12.2358 5.12683L12.226 5.11757C12.6135 5.15398 13.0028 5.06993 13.3408 4.87694C13.6788 4.68395 13.949 4.39139 14.1146 4.03917C14.2802 3.68695 14.3331 3.29222 14.2662 2.90882C14.1992 2.52541 14.0156 2.17201 13.7404 1.89679C13.4652 1.62158 13.1117 1.43796 12.7283 1.37099C12.3449 1.30402 11.9502 1.35694 11.598 1.52255C11.2458 1.68816 10.9532 1.95839 10.7602 2.29638C10.5672 2.63437 10.4832 3.02367 10.5196 3.41117L10.5103 3.4014C10.5377 3.72535 10.4941 4.05137 10.3825 4.35671C10.2709 4.66205 10.094 4.93935 9.86413 5.16926C9.63425 5.39909 9.35695 5.57606 9.05161 5.68766C8.74623 5.79926 8.42023 5.84287 8.09628 5.81546L8.10553 5.82523C7.83024 5.79751 7.55216 5.8313 7.29152 5.92418C7.03088 6.01701 6.79411 6.16666 6.59837 6.36225C6.40263 6.55783 6.25282 6.7945 6.15973 7.05509C6.0667 7.31568 6.03271 7.59365 6.06022 7.869L6.05096 7.85974C6.07822 8.18364 6.03445 8.5096 5.9228 8.81488C5.8111 9.1201 5.63419 9.39736 5.40435 9.62719C5.1745 9.85702 4.89728 10.0339 4.59202 10.1456C4.28676 10.2573 3.96081 10.3011 3.63691 10.2738L3.64616 10.2831C3.25866 10.2466 2.86936 10.3307 2.53137 10.5237C2.19338 10.7167 1.92315 11.0092 1.75754 11.3615C1.59193 11.7137 1.539 12.1084 1.60598 12.4918C1.67295 12.8752 1.85657 13.2286 2.13178 13.5038C2.407 13.7791 2.7604 13.9627 3.14381 14.0296C3.52721 14.0966 3.92194 14.0437 4.27416 13.8781C4.62638 13.7125 4.91894 13.4423 5.11193 13.1043C5.30494 12.7662 5.38897 12.377 5.35256 11.9895L5.36233 11.9987C5.33497 11.6748 5.37869 11.3488 5.49034 11.0435C5.60194 10.7382 5.77891 10.4609 6.00874 10.2311C6.23863 10.0012 6.51588 9.82426 6.82116 9.71266C7.12649 9.60101 7.45244 9.5573 7.77639 9.58466Z" fill="#D1D1D1"/>
<path d="M4.32962 8.55164C4.52455 8.35559 4.67378 8.11892 4.76668 7.85853C4.85958 7.59815 4.89386 7.32044 4.86705 7.04529L4.87682 7.05455C4.84946 6.73055 4.89315 6.40444 5.00486 6.09906C5.11657 5.79368 5.2936 5.51637 5.52359 5.28649C5.75358 5.05661 6.03093 4.8797 6.33636 4.76813C6.6418 4.65655 6.96791 4.61299 7.29191 4.64049L7.28214 4.63124C7.6695 4.66753 8.05866 4.58345 8.39649 4.39047C8.73432 4.19749 9.00438 3.905 9.16992 3.5529C9.33542 3.20079 9.38829 2.8062 9.32133 2.42294C9.25437 2.03968 9.07077 1.6864 8.79568 1.41129C8.52059 1.13618 8.16727 0.952622 7.78403 0.885651C7.40078 0.818676 7.00617 0.871555 6.65409 1.03706C6.30196 1.20257 6.00948 1.47266 5.81652 1.81049C5.62351 2.14833 5.53943 2.53747 5.57574 2.92484L5.56648 2.91558C5.59384 3.2395 5.55013 3.56549 5.43847 3.87079C5.32682 4.17609 5.14992 4.45335 4.92005 4.68321C4.69019 4.91308 4.41293 5.09001 4.10763 5.20163C3.80233 5.31328 3.47634 5.357 3.15242 5.32964L3.16168 5.33889C2.84517 5.3105 2.52662 5.3625 2.23554 5.48999C1.94447 5.61748 1.69028 5.81641 1.49655 6.0683C1.30281 6.32015 1.17579 6.61689 1.12725 6.93092C1.07872 7.24499 1.11024 7.56621 1.21889 7.86481C1.32755 8.16345 1.50982 8.4298 1.74883 8.63922C1.98783 8.84869 2.27583 8.99438 2.58614 9.06289C2.89645 9.13134 3.21902 9.12038 3.52398 9.03105C3.82893 8.94167 4.10639 8.77679 4.33065 8.55164H4.32962Z" fill="#D1D1D1"/>
<path d="M20.2607 3.42285H21.7882V10.8558H20.2607V3.42285Z" fill="#D1D1D1"/>
<path d="M22.6531 8.31081C22.651 7.77668 22.8075 7.25385 23.1027 6.80869C23.3979 6.36352 23.8186 6.01597 24.3115 5.8101C24.8044 5.60418 25.3472 5.5492 25.8714 5.65211C26.3956 5.75502 26.8774 6.01113 27.2559 6.38811C27.6343 6.76503 27.8924 7.24583 27.9974 7.76958C28.1024 8.29333 28.0496 8.83647 27.8457 9.33018C27.6418 9.82384 27.2959 10.246 26.8519 10.5429C26.4079 10.8399 25.8858 10.9985 25.3516 10.9985C24.9971 11.0025 24.6452 10.9358 24.3167 10.8023C23.9882 10.6688 23.6896 10.4712 23.4384 10.221C23.1871 9.97072 22.9883 9.6729 22.8535 9.34494C22.7186 9.01698 22.6505 8.66542 22.6531 8.31081ZM26.5226 8.31081C26.5163 8.08057 26.4421 7.85732 26.3096 7.66893C26.177 7.4806 25.9919 7.33547 25.7773 7.2518C25.5627 7.16807 25.3283 7.14945 25.1032 7.19831C24.8781 7.24717 24.6723 7.36124 24.5117 7.52637C24.3512 7.69146 24.2428 7.90026 24.2002 8.12665C24.1576 8.35299 24.1827 8.58688 24.2723 8.79908C24.362 9.01127 24.5121 9.1923 24.7041 9.31959C24.8961 9.44687 25.1213 9.51476 25.3516 9.51476C25.5093 9.51897 25.6662 9.49043 25.8125 9.43098C25.9586 9.37153 26.0909 9.28245 26.2009 9.16936C26.3109 9.05622 26.3963 8.92153 26.4517 8.77377C26.5071 8.62602 26.5312 8.46839 26.5226 8.31081Z" fill="#D1D1D1"/>
<path d="M34.1376 5.7647V10.599C34.1376 12.3095 32.8036 13.0326 31.4494 13.0326C30.9727 13.0683 30.4953 12.972 30.0696 12.7543C29.644 12.5365 29.2865 12.2058 29.0364 11.7983L30.3396 11.0449C30.4447 11.2573 30.6122 11.4325 30.8196 11.5471C31.0271 11.6617 31.2646 11.7103 31.5004 11.6862C31.651 11.7071 31.8045 11.6938 31.9494 11.6474C32.0942 11.6009 32.2268 11.5225 32.3372 11.4179C32.4477 11.3133 32.5332 11.1853 32.5876 11.0431C32.6418 10.901 32.6634 10.7485 32.6508 10.5969V10.1315C32.4719 10.3503 32.2443 10.5242 31.9861 10.6392C31.7279 10.7541 31.4464 10.8069 31.164 10.7934C30.4923 10.7722 29.8551 10.4905 29.3874 10.0078C28.9197 9.5251 28.6582 8.87937 28.6582 8.2073C28.6582 7.53523 28.9197 6.88949 29.3874 6.40684C29.8551 5.92413 30.4923 5.6424 31.164 5.62121C31.4464 5.60769 31.7279 5.6605 31.9861 5.77545C32.2443 5.89039 32.4719 6.06427 32.6508 6.2831V5.76367L34.1376 5.7647ZM32.6513 8.20807C32.6616 7.96193 32.5979 7.71832 32.4686 7.50864C32.3393 7.29892 32.1501 7.13275 31.9255 7.03149C31.7009 6.93017 31.4512 6.89844 31.2084 6.9403C30.9656 6.98217 30.7409 7.09572 30.5632 7.26641C30.3855 7.43705 30.2629 7.65696 30.2112 7.89785C30.1596 8.13874 30.1812 8.38961 30.2734 8.61811C30.3655 8.84661 30.5239 9.04235 30.7282 9.18007C30.9324 9.3178 31.1733 9.39124 31.4196 9.39093C31.5801 9.40214 31.7411 9.37961 31.8924 9.32479C32.0436 9.26997 32.1817 9.18403 32.2978 9.07264C32.4138 8.96119 32.5052 8.8267 32.5661 8.67777C32.627 8.52888 32.6561 8.36889 32.6513 8.20807Z" fill="#D1D1D1"/>
<path d="M35.0028 8.31081C35.0006 7.77668 35.157 7.25385 35.4523 6.80869C35.7475 6.36352 36.1682 6.01597 36.6611 5.8101C37.154 5.60418 37.6968 5.5492 38.221 5.65211C38.7452 5.75502 39.227 6.01113 39.6055 6.38811C39.9839 6.76503 40.242 7.24583 40.347 7.76958C40.452 8.29333 40.3992 8.83647 40.1953 9.33018C39.9914 9.82384 39.6455 10.246 39.2015 10.5429C38.7575 10.8399 38.2354 10.9985 37.7012 10.9985C37.3467 11.0025 36.9948 10.9358 36.6663 10.8023C36.3378 10.6688 36.0392 10.4712 35.788 10.221C35.5367 9.97072 35.3379 9.6729 35.2031 9.34494C35.0682 9.01698 35.0001 8.66542 35.0028 8.31081ZM38.8722 8.31081C38.8659 8.08057 38.7918 7.85732 38.6592 7.66893C38.5266 7.4806 38.3415 7.33547 38.1269 7.2518C37.9123 7.16807 37.6778 7.14945 37.4528 7.19831C37.2277 7.24717 37.0219 7.36124 36.8613 7.52637C36.7008 7.69146 36.5924 7.90026 36.5498 8.12665C36.5072 8.35299 36.5323 8.58688 36.6219 8.79908C36.7116 9.01127 36.8617 9.1923 37.0537 9.31959C37.2457 9.44687 37.4709 9.51476 37.7012 9.51476C37.8589 9.51897 38.0159 9.49043 38.162 9.43098C38.3082 9.37153 38.4405 9.28245 38.5505 9.16936C38.6605 9.05622 38.7459 8.92153 38.8013 8.77377C38.8567 8.62602 38.8808 8.46839 38.8722 8.31081Z" fill="#D1D1D1"/>
<path d="M41.1119 4.39986C41.1119 4.2186 41.1657 4.04141 41.2664 3.8907C41.3671 3.73999 41.5103 3.62252 41.6777 3.55316C41.8452 3.4838 42.0294 3.46565 42.2072 3.50101C42.3849 3.53637 42.5483 3.62366 42.6764 3.75183C42.8046 3.87999 42.8919 4.04329 42.9273 4.22107C42.9626 4.39884 42.9444 4.58311 42.8751 4.75057C42.8057 4.91803 42.6883 5.06116 42.5375 5.16187C42.3869 5.26257 42.2097 5.31631 42.0284 5.31631C41.7861 5.3139 41.5544 5.21659 41.383 5.04522C41.2117 4.87387 41.1144 4.64217 41.1119 4.39986ZM41.2662 5.76426H42.7942V10.8557H41.2642L41.2662 5.76426Z" fill="#D1D1D1"/>
<path d="M49.3893 8.31015C49.4069 8.64664 49.3579 8.9833 49.245 9.30076C49.1321 9.61823 48.9575 9.91024 48.7314 10.16C48.5052 10.4098 48.2319 10.6124 47.9272 10.7562C47.6224 10.8999 47.2923 10.9821 46.9557 10.9978C46.6726 11.0132 46.3897 10.9655 46.1274 10.8581C45.865 10.7506 45.63 10.5861 45.4391 10.3765V12.8919H43.9116V5.76443H45.4391V6.24272C45.63 6.0333 45.8652 5.86894 46.1275 5.7616C46.3898 5.65422 46.6727 5.60655 46.9557 5.62198C47.2923 5.63766 47.6226 5.71974 47.9274 5.86354C48.2322 6.00733 48.5055 6.20996 48.7317 6.4598C48.9579 6.70964 49.1324 7.00175 49.2453 7.31932C49.3581 7.63684 49.4071 7.9736 49.3893 8.31015ZM47.8618 8.31015C47.8559 8.07188 47.7798 7.84066 47.643 7.64538C47.5063 7.45016 47.315 7.29958 47.0931 7.21256C46.8712 7.12549 46.6286 7.10579 46.3956 7.15599C46.1625 7.20613 45.9495 7.3239 45.7831 7.49454C45.6167 7.66523 45.5043 7.88113 45.46 8.11539C45.4158 8.34959 45.4415 8.59162 45.5341 8.81127C45.6267 9.03092 45.7821 9.21832 45.9807 9.35014C46.1793 9.4819 46.4123 9.5522 46.6507 9.55215C46.8144 9.55945 46.9777 9.53204 47.13 9.47176C47.2823 9.41154 47.4202 9.31974 47.5345 9.20248C47.6489 9.08518 47.7371 8.94508 47.7936 8.79131C47.85 8.63754 47.8733 8.47354 47.8618 8.31015Z" fill="#D1D1D1"/>
<path d="M54.1028 9.32815C54.1028 10.4992 53.085 10.998 51.9855 10.998C51.5411 11.0383 51.0951 10.9443 50.7048 10.7283C50.3145 10.5123 49.998 10.1842 49.7961 9.78638L51.1194 9.03295C51.1729 9.21681 51.2879 9.3768 51.4451 9.48609C51.6023 9.59543 51.7926 9.64752 51.9834 9.63364C52.3496 9.63364 52.5332 9.52152 52.5332 9.31838C52.5332 8.75781 50.0281 9.05352 50.0281 7.29209C50.0281 6.18175 50.9651 5.62221 52.024 5.62221C52.4221 5.60961 52.816 5.70403 53.1652 5.8956C53.5144 6.08723 53.806 6.36895 54.0092 6.71147L52.706 7.41398C52.6489 7.28063 52.5537 7.16702 52.4324 7.08736C52.311 7.00769 52.1691 6.96552 52.024 6.96604C51.7592 6.96604 51.5961 7.06889 51.5961 7.25095C51.5982 7.83158 54.1028 7.44432 54.1028 9.32815Z" fill="#D1D1D1"/>
<path d="M59.6822 5.76465V10.8561H58.1548V10.3773C57.9784 10.5885 57.7547 10.755 57.5017 10.863C57.2486 10.971 56.974 11.0175 56.6994 10.9985C55.6708 10.9985 54.7965 10.2657 54.7965 8.88996V5.76465H56.3239V8.66625C56.3111 8.78752 56.325 8.91012 56.3646 9.02548C56.4036 9.14088 56.4679 9.24631 56.5523 9.33441C56.6366 9.42251 56.739 9.49116 56.8526 9.53565C56.9658 9.58013 57.0877 9.59937 57.2095 9.59196C57.7696 9.59196 58.1563 9.26642 58.1563 8.54333V5.76619L59.6822 5.76465Z" fill="#D1D1D1"/>
<path d="M68.4406 7.72933V10.8552H66.9132V7.8615C66.9132 7.35236 66.6689 7.02681 66.1803 7.02681C65.6712 7.02681 65.3857 7.38321 65.3857 7.9839V10.8552H63.8588V7.8615C63.8588 7.35236 63.6145 7.02681 63.1254 7.02681C62.6163 7.02681 62.3314 7.38321 62.3314 7.9839V10.8552H60.804V5.76373H62.3314V6.23173C62.4898 6.02411 62.6976 5.85944 62.9357 5.75283C63.1743 5.64616 63.4356 5.60096 63.6958 5.62127C63.957 5.60847 64.2173 5.66365 64.4513 5.78137C64.6848 5.89904 64.8838 6.07533 65.0293 6.29293C65.1985 6.06525 65.4228 5.88423 65.6809 5.76676C65.9391 5.6493 66.223 5.59926 66.5058 5.62127C67.6748 5.62179 68.4406 6.45647 68.4406 7.72933Z" fill="#D1D1D1"/>
<path d="M69.7324 5.73279C70.3582 5.73279 70.8659 5.22529 70.8659 4.59931C70.8659 3.9733 70.3582 3.46582 69.7324 3.46582C69.1065 3.46582 68.5989 3.9733 68.5989 4.59931C68.5989 5.22529 69.1065 5.73279 69.7324 5.73279Z" fill="#D1D1D1"/>
</svg>
