<svg width="18" height="18" viewBox="0 0 18 18" fill="none" xmlns="http://www.w3.org/2000/svg">
<path fill-rule="evenodd" clip-rule="evenodd" d="M3.88097 0.00045012C4.81181 0.0129501 5.47514 0.71045 6.31431 1.59295C6.52181 1.81045 6.74597 2.04795 6.99681 2.29795C8.21264 3.51462 7.86681 4.50712 7.58764 5.30378C7.28431 6.17295 7.02181 6.92295 8.59347 8.49462C10.1651 10.0663 10.9143 9.80378 11.7826 9.49795C12.5801 9.21962 13.5701 8.87128 14.7885 10.0879C15.036 10.3354 15.2693 10.5571 15.486 10.7629C16.3718 11.6063 17.0718 12.2721 17.0836 13.2055C17.0926 14.0005 16.6093 14.8121 15.416 16.0054L14.8876 15.6471L15.3351 16.0829C15.071 16.3538 14.3685 17.0754 12.9926 17.0838H12.9676C10.891 17.0838 8.18347 15.4305 4.92014 12.168C1.64347 8.89212 -0.0123603 6.17628 6.94604e-05 4.09545C0.00763971 2.72045 0.728473 2.01628 0.999306 1.75212L1.02242 1.72687L1.07847 1.67045C2.27431 0.474617 3.09597 -0.0170499 3.88097 0.00045012ZM3.86514 1.25045H3.85847C3.48425 1.25045 2.91594 1.62545 2.12333 2.39536L1.96417 2.55167L1.96597 2.55128C1.96597 2.55128 1.95237 2.56688 1.92919 2.59052L1.87347 2.64628C1.67181 2.84212 1.25431 3.24962 1.2501 4.10212C1.24347 5.29462 2.02764 7.50878 5.80347 11.2838C9.56097 15.0404 11.7718 15.8338 12.9676 15.8338H12.9851C13.8376 15.8288 14.2443 15.4113 14.4401 15.2104C14.4993 15.1496 14.5476 15.1038 14.5818 15.0763C15.4126 14.2404 15.8376 13.6196 15.8335 13.2204C15.8285 12.8138 15.3226 12.3338 14.6235 11.6679C14.401 11.4571 14.1593 11.2263 13.9043 10.9713C13.2426 10.3121 12.9168 10.4246 12.196 10.678C11.2001 11.0271 9.83597 11.5054 7.71014 9.37795C5.58347 7.25212 6.06014 5.88795 6.40764 4.89128C6.65931 4.17128 6.77431 3.84378 6.11347 3.18212C5.85514 2.92378 5.62264 2.67878 5.40847 2.45378C4.74681 1.75878 4.26931 1.25628 3.86514 1.25045ZM11.0386 2.96503C12.7727 3.3017 14.1119 4.64003 14.4494 6.37503C14.5152 6.71503 14.2944 7.04253 13.9561 7.10837C13.9152 7.11587 13.8752 7.12003 13.8352 7.12003C13.5419 7.12003 13.2811 6.91337 13.2227 6.61503C12.9827 5.3817 12.0319 4.43087 10.8002 4.1917C10.4611 4.12587 10.2402 3.79837 10.3061 3.4592C10.3719 3.12003 10.7052 2.89837 11.0386 2.96503ZM10.9886 0.00520012C14.387 0.3827 17.0261 3.01853 17.407 6.41603C17.4453 6.75937 17.1986 7.06853 16.8561 7.10687C16.8328 7.10937 16.8086 7.11103 16.7853 7.11103C16.4711 7.11103 16.2011 6.8752 16.1653 6.55603C15.8495 3.7427 13.6645 1.55937 10.8503 1.24687C10.5078 1.20853 10.2603 0.9002 10.2986 0.556867C10.3361 0.214367 10.642 -0.0381332 10.9886 0.00520012Z" fill="currentColor"/>
</svg>
