<svg width="19" height="17" viewBox="0 0 19 17" fill="none" xmlns="http://www.w3.org/2000/svg">
<path fill-rule="evenodd" clip-rule="evenodd" d="M13.8824 0.667969C16.6574 0.667969 18.7499 2.93214 18.7499 5.93464V11.658C18.7499 13.1946 18.2066 14.583 17.2191 15.568C16.3333 16.4505 15.1841 16.918 13.8958 16.918H5.68492C4.39909 16.918 3.25075 16.4513 2.36409 15.568C1.37659 14.583 0.833252 13.1946 0.833252 11.658V5.93464C0.833252 2.93214 2.92575 0.667969 5.70075 0.667969H13.8824ZM13.8824 1.91797H5.70075C3.60492 1.91797 2.08325 3.60714 2.08325 5.93464V11.658C2.08325 12.8605 2.49659 13.9346 3.24659 14.6821C3.89325 15.328 4.73742 15.668 5.68742 15.668H13.8824C13.8841 15.6663 13.8908 15.668 13.8958 15.668C14.8466 15.668 15.6899 15.328 16.3366 14.6821C17.0874 13.9346 17.4999 12.8605 17.4999 11.658V5.93464C17.4999 3.60714 15.9783 1.91797 13.8824 1.91797ZM15.1958 5.7753C15.4133 6.0428 15.3724 6.43614 15.1049 6.65447L11.4016 9.66447C10.9333 10.0361 10.3733 10.222 9.81409 10.222C9.25659 10.222 8.70075 10.0378 8.23575 9.66947L4.49825 6.65613C4.22909 6.43947 4.18742 6.0453 4.40325 5.77697C4.62075 5.50947 5.01409 5.46697 5.28242 5.6828L9.01658 8.6928C9.48575 9.06447 10.1466 9.06447 10.6191 8.68947L14.3158 5.68447C14.5841 5.4653 14.9774 5.50697 15.1958 5.7753Z" fill="#B0B0B2"/>
</svg>
