<svg width="73" height="21" viewBox="0 0 73 21" fill="none" xmlns="http://www.w3.org/2000/svg">
<g clip-path="url(#clip0_43_1806)">
<path d="M24.09 13.0912V5.09082H22.7781V13.0912H24.09Z" fill="#D1D1D1"/>
<path d="M24.8928 10.4238C24.8928 12.0583 25.9897 13.2196 27.6564 13.2196C29.3232 13.2196 30.42 12.0583 30.42 10.4238C30.42 8.78928 29.3232 7.62793 27.6564 7.62793C25.9897 7.62793 24.8928 8.78928 24.8928 10.4238ZM26.2155 10.4238C26.2155 9.46673 26.7854 8.80003 27.6564 8.80003C28.5274 8.80003 29.0973 9.46673 29.0973 10.4238C29.0973 11.3701 28.5274 12.0475 27.6564 12.0475C26.7854 12.0475 26.2155 11.3701 26.2155 10.4238Z" fill="#D1D1D1"/>
<path d="M30.8613 10.3163C30.8613 11.8647 31.8614 12.9831 33.3561 12.9831C34.1303 12.9831 34.797 12.6712 35.1304 12.1551V13.0583C35.1304 13.9294 34.582 14.51 33.6679 14.51C32.8507 14.51 32.2915 14.1122 32.2162 13.4132H30.8936C31.0656 14.8004 32.1302 15.7036 33.5927 15.7036C35.3132 15.7036 36.41 14.5745 36.41 12.8218V7.7785H35.2487L35.1734 8.49896C34.8508 7.9398 34.1841 7.60645 33.3991 7.60645C31.8829 7.60645 30.8613 8.75704 30.8613 10.3163ZM32.1947 10.284C32.1947 9.40224 32.7539 8.75704 33.5819 8.75704C34.4852 8.75704 35.0874 9.41299 35.0874 10.284C35.0874 11.1658 34.4852 11.8432 33.5819 11.8432C32.7647 11.8432 32.1947 11.1765 32.1947 10.284Z" fill="#D1D1D1"/>
<path d="M37.0592 10.4238C37.0592 12.0583 38.156 13.2196 39.8228 13.2196C41.4895 13.2196 42.5864 12.0583 42.5864 10.4238C42.5864 8.78928 41.4895 7.62793 39.8228 7.62793C38.156 7.62793 37.0592 8.78928 37.0592 10.4238ZM38.3819 10.4238C38.3819 9.46673 38.9518 8.80003 39.8228 8.80003C40.6938 8.80003 41.2637 9.46673 41.2637 10.4238C41.2637 11.3701 40.6938 12.0475 39.8228 12.0475C38.9518 12.0475 38.3819 11.3701 38.3819 10.4238Z" fill="#D1D1D1"/>
<path d="M44.0062 6.69301C44.4363 6.69301 44.7912 6.34891 44.7912 5.90802C44.7912 5.47789 44.4363 5.13379 44.0062 5.13379C43.5653 5.13379 43.2319 5.47789 43.2319 5.90802C43.2319 6.34891 43.5653 6.69301 44.0062 6.69301ZM43.3502 13.0912H44.6621V7.77909H43.3502V13.0912Z" fill="#D1D1D1"/>
<path d="M45.8114 15.5531H47.0911V12.3594C47.4245 12.9078 48.1449 13.2304 48.9407 13.2304C50.5107 13.2304 51.4462 12.026 51.4247 10.37C51.3924 8.70327 50.4354 7.61719 48.9299 7.61719C48.1234 7.61719 47.3922 7.97205 47.0696 8.58498L46.9944 7.77849H45.8114V15.5531ZM47.1449 10.4345C47.1449 9.4775 47.7256 8.8108 48.6396 8.8108C49.5536 8.8108 50.102 9.48825 50.102 10.4345C50.102 11.3808 49.5536 12.0475 48.6396 12.0475C47.7256 12.0475 47.1449 11.3916 47.1449 10.4345Z" fill="#D1D1D1"/>
<path d="M51.7576 11.4991C51.8006 12.5529 52.6178 13.2304 53.8867 13.2304C55.1341 13.2304 55.9836 12.5637 55.9836 11.5314C55.9836 10.7679 55.5105 10.2517 54.6394 10.0367L53.7039 9.81085C53.306 9.70332 53.0372 9.56353 53.0372 9.21942C53.0372 8.85381 53.3275 8.59573 53.8007 8.59573C54.2953 8.59573 54.6179 8.87532 54.6179 9.33771H55.8115C55.7685 8.28389 54.9835 7.61719 53.8329 7.61719C52.6931 7.61719 51.8436 8.28389 51.8436 9.29469C51.8436 9.9829 52.2415 10.5528 53.263 10.8217L54.1878 11.0582C54.5319 11.155 54.747 11.3163 54.747 11.6174C54.747 12.0368 54.3491 12.2303 53.8652 12.2303C53.2845 12.2303 52.9512 11.9615 52.9512 11.4991H51.7576Z" fill="#D1D1D1"/>
<path d="M58.7051 13.2302C59.4256 13.2302 60.1138 12.8969 60.4256 12.4022L60.5117 13.0904H61.7375V7.77832H60.4256V10.5634C60.4256 11.5204 60.06 12.0581 59.1998 12.0581C58.5331 12.0581 58.0707 11.7355 58.0707 10.6387V7.77832H56.7588V11.1011C56.7588 12.37 57.447 13.2302 58.7051 13.2302Z" fill="#D1D1D1"/>
<path d="M64.207 13.0906V10.0367C64.207 9.17641 64.7124 8.76779 65.3361 8.76779C65.9598 8.76779 66.3684 9.16566 66.3684 9.91838V13.0906H67.6481V10.0474C67.6481 9.17641 68.1427 8.76779 68.7664 8.76779C69.4009 8.76779 69.8095 9.16566 69.8095 9.91838V13.0906H71.0784V9.61729C71.0784 8.39142 70.4009 7.61719 69.1105 7.61719C68.304 7.61719 67.6696 8.0043 67.4115 8.62799C67.1212 8.0043 66.5405 7.61719 65.6587 7.61719C65.035 7.61719 64.4759 7.90753 64.164 8.38067L64.0995 7.77849H62.8951V13.0906H64.207Z" fill="#D1D1D1"/>
<path d="M61.0619 17.8384C61.2574 17.8384 61.4271 17.6739 61.4271 17.4784C61.4271 17.2779 61.2574 17.1133 61.0619 17.1133C60.8614 17.1133 60.6917 17.2779 60.6917 17.4784C60.6917 17.6739 60.8614 17.8384 61.0619 17.8384Z" fill="#D1D1D1"/>
<path d="M61.8043 16.5117C61.8043 17.2985 62.2878 17.8283 62.9923 17.8283C63.5992 17.8283 64.062 17.4631 64.1597 16.918H63.6969C63.6095 17.2214 63.342 17.4014 63.0232 17.4014C62.5706 17.4014 62.2826 17.0517 62.2826 16.5065C62.2826 15.9511 62.586 15.6117 63.0335 15.6117C63.342 15.6117 63.6095 15.7763 63.6918 16.1003H64.1546C64.0723 15.55 63.6403 15.1797 63.0386 15.1797C62.3083 15.1797 61.8043 15.7197 61.8043 16.5117Z" fill="#D1D1D1"/>
<path d="M64.3422 16.5063C64.3422 17.2623 64.8564 17.828 65.6279 17.828C66.3993 17.828 66.9136 17.2623 66.9136 16.5063C66.9136 15.7503 66.3993 15.1846 65.6279 15.1846C64.8564 15.1846 64.3422 15.7503 64.3422 16.5063ZM64.8307 16.5063C64.8307 15.992 65.1444 15.6166 65.6279 15.6166C66.1113 15.6166 66.425 15.992 66.425 16.5063C66.425 17.0206 66.1113 17.396 65.6279 17.396C65.1444 17.396 64.8307 17.0206 64.8307 16.5063Z" fill="#D1D1D1"/>
<path d="M67.8098 17.7714V16.2594C67.8098 15.8634 68.0567 15.6063 68.4167 15.6063C68.7613 15.6063 68.9773 15.8274 68.9773 16.2234V17.7714H69.4504V16.2646C69.4504 15.8634 69.6921 15.6063 70.0573 15.6063C70.3967 15.6063 70.6127 15.8274 70.6127 16.2234V17.7714H71.0807V16.1206C71.0807 15.5394 70.7413 15.1846 70.1653 15.1846C69.7744 15.1846 69.471 15.3749 69.3476 15.6834C69.219 15.3749 68.9361 15.1846 68.5247 15.1846C68.211 15.1846 67.9333 15.3286 67.7944 15.5754L67.7584 15.2566H67.3264V17.7714H67.8098Z" fill="#D1D1D1"/>
<path fill-rule="evenodd" clip-rule="evenodd" d="M0.975586 10.4897L0.976488 10.396L0.978349 10.3023L0.981173 10.2085L0.984955 10.1148L0.989705 10.0211L0.995414 9.92732L1.00209 9.83362L1.00973 9.73993L1.01833 9.64628L1.02789 9.55264L1.03842 9.45913L1.04991 9.36562L1.06236 9.27221L1.07578 9.17889L1.09016 9.08567L1.1055 8.99258L1.1218 8.89954L1.13906 8.80669L1.15728 8.71393L1.17646 8.62131L1.19659 8.52883L1.21768 8.43654L1.23973 8.34444L1.26272 8.25248L1.28667 8.16075L1.31157 8.06916L1.33742 7.9778L1.36421 7.88668L1.39195 7.79579L1.42063 7.70514L1.45025 7.61472L1.48082 7.52453L1.51231 7.43462L1.54474 7.345L1.5781 7.25565L1.61239 7.16659L1.64761 7.07785L1.68375 6.98939L1.72081 6.90131L1.75879 6.81351L1.79769 6.72603L1.83749 6.63893L1.8782 6.5522L1.91982 6.4658L1.96235 6.37978L2.00577 6.29417L2.05008 6.20894L2.09528 6.12408L2.14137 6.03969L2.18835 5.95568L2.2362 5.87208L2.28493 5.78895L2.33453 5.70625L2.385 5.62401L2.43633 5.54224L2.48851 5.46093L2.54155 5.38014L2.59545 5.29978L2.65018 5.21997L2.70576 5.14063L2.76216 5.0618L2.8194 4.98354L2.87746 4.90574L2.93634 4.82855L2.99604 4.75187L3.05655 4.67573L3.11785 4.60018L3.17996 4.5252L3.24286 4.45079L3.30654 4.37697L3.37101 4.30375L3.43625 4.23114L3.50226 4.15914L3.56904 4.08775L3.63657 4.017L3.70485 3.94688L3.77388 3.8774L3.84365 3.80857L3.91414 3.7404L3.98537 3.67289L4.05731 3.60606L4.12997 3.5399L4.20333 3.47444L4.27739 3.40967L4.35214 3.34559L4.42758 3.28223L4.50369 3.21959L4.58048 3.15766L4.65793 3.09647L4.73604 3.03601L4.81478 2.97629L4.89421 2.91732L4.97425 2.85912L5.0549 2.80167L5.13616 2.74499L5.21807 2.68909L5.30054 2.63396L5.38362 2.57963L5.46731 2.52609L5.55161 2.47335L5.63642 2.42142L5.72184 2.37029L5.80777 2.31999L5.89426 2.27051L5.98132 2.22186L6.06888 2.17405L6.15697 2.12707L6.24556 2.08094L6.33468 2.03566L6.4243 1.99124L6.5144 1.94768L6.605 1.90498L6.69603 1.86316L6.78758 1.82222L6.87954 1.78216L6.97197 1.74298L7.06482 1.7047L7.15809 1.66731L7.25179 1.63082L7.3459 1.59524L7.44039 1.56057L7.5353 1.52681L7.63058 1.49397L7.72624 1.46204L7.82222 1.43105L7.91858 1.40098L8.01532 1.37185L8.11237 1.34366L8.20972 1.31641L8.30743 1.2901L8.40542 1.26473L8.5037 1.24032L8.60226 1.21687L8.70114 1.19437L8.80026 1.17283L8.89961 1.15226L8.99924 1.13265L9.0991 1.11401L9.1992 1.09635L9.29953 1.07965L9.40005 1.06394L9.50076 1.0492L9.60165 1.03545L9.70273 1.02269L9.804 1.0109L9.90541 1.0001L10.007 0.990304L10.1086 0.981491L10.2105 0.97367L10.3124 0.966848L10.8605 0.935547L10.8918 3.57648L10.9097 3.57628L10.9854 3.57617L11.0611 3.57681L11.1368 3.57819L11.2126 3.58031L11.2883 3.58318L11.3641 3.58679L11.4399 3.59115L11.5157 3.59626L11.5914 3.60211L11.6672 3.60872L11.7429 3.61606L11.8186 3.62416L11.8942 3.633L11.9698 3.64259L12.0453 3.65293L12.1208 3.66401L12.1961 3.67584L12.2715 3.68842L12.3466 3.70174L12.4218 3.71581L12.4968 3.73062L12.5716 3.74618L12.6464 3.76248L12.721 3.77952L12.7955 3.7973L12.8699 3.81582L12.9441 3.83509L13.0181 3.85509L13.092 3.87583L13.1657 3.8973L13.2392 3.91951L13.3125 3.94245L13.3856 3.96613L13.4586 3.99053L13.5313 4.01566L13.6037 4.04152L13.676 4.0681L13.748 4.09541L13.8198 4.12344L13.8913 4.15218L13.9626 4.18165L14.0335 4.21182L14.1043 4.24271L14.1747 4.27431L14.2449 4.30662L14.3147 4.33963L14.3843 4.37334L14.4535 4.40776L14.5224 4.44287L14.591 4.47867L14.6593 4.51517L14.7272 4.55235L14.7948 4.59022L14.862 4.62878L14.9289 4.66801L14.9953 4.70793L15.0615 4.74851L15.1272 4.78974L15.1925 4.83168L15.2574 4.87423L15.322 4.91747L15.3861 4.96138L15.4498 5.00588L15.5131 5.0511L15.5759 5.09691L15.6383 5.14339L15.7003 5.19051L15.7618 5.23825L15.8228 5.28664L15.8834 5.33559L15.9435 5.38519L16.0031 5.43545L16.0623 5.48627L16.1209 5.5377L16.1791 5.58974L16.2367 5.64238L16.2938 5.69564L16.3504 5.74945L16.4065 5.80382L16.4621 5.8588L16.5171 5.91435L16.5716 5.9705L16.6255 6.02716L16.6789 6.08439L16.7317 6.14218L16.7839 6.20052L16.8356 6.25939L16.8867 6.31881L16.9372 6.37875L16.9871 6.4392L17.0364 6.50021L17.0852 6.56169L17.1333 6.62369L17.1808 6.6862L17.2277 6.74922L17.2739 6.81271L17.3195 6.87672L17.3645 6.94119L17.4089 7.00608L17.4526 7.07149L17.4957 7.13736L17.5381 7.20371L17.5798 7.27047L17.6209 7.33766L17.6613 7.40531L17.701 7.47338L17.74 7.54187L17.7784 7.61079L17.8161 7.68012L17.8531 7.74983L17.8894 7.81996L17.9249 7.89047L17.9598 7.96134L17.994 8.03264L18.0275 8.10427L18.0602 8.17627L18.0922 8.24864L18.1235 8.32134L18.154 8.39442L18.1839 8.46777L18.2129 8.5415L18.2413 8.61552L18.2689 8.6899L18.2957 8.76452L18.3218 8.83951L18.3471 8.91474L18.3717 8.99029L18.3955 9.06608L18.4186 9.14214L18.4408 9.21849L18.4623 9.29507L18.483 9.37194L18.503 9.44903L18.5221 9.52632L18.5405 9.60388L18.5581 9.68163L18.5749 9.75961L18.5909 9.83774L18.6061 9.91614L18.6205 9.99469L18.6342 10.0734L18.647 10.1523L18.659 10.2314L18.6702 10.3106L18.6806 10.3899L18.6902 10.4695L18.699 10.5491L18.7069 10.6289L18.7141 10.7087L18.7205 10.7887L18.726 10.8688L18.7306 10.949L18.7345 11.0292L18.7376 11.1096L18.7398 11.1899L18.7413 11.2704L18.7418 11.3509L18.7416 11.4315L18.7405 11.5121L18.7386 11.5927L18.7359 11.6733L18.7323 11.754L18.728 11.8346L18.7227 11.9153L18.7167 11.9959L18.7098 12.0765L18.7021 12.1571L18.6936 12.2377L18.6842 12.3181L18.674 12.3986L18.663 12.479L18.6512 12.5593L18.6385 12.6395L18.625 12.7197L18.6106 12.7997L18.5955 12.8796L18.5795 12.9595L18.5627 13.0392L18.545 13.1188L18.5265 13.1983L18.5073 13.2776L18.4871 13.3567L18.4662 13.4357L18.4444 13.5145L18.4218 13.5931L18.3985 13.6716L18.3742 13.7499L18.3492 13.8279L18.3234 13.9058L18.2967 13.9834L18.2692 14.0609L18.241 14.1381L18.2119 14.215L18.182 14.2916L18.1514 14.3681L18.1199 14.4442L18.0876 14.5201L18.0546 14.5958L18.0207 14.671L17.9861 14.7461L17.9507 14.8208L17.9145 14.8952L17.8774 14.9693L17.8397 15.043L17.8011 15.1165L17.7619 15.1895L17.7218 15.2622L17.6809 15.3346L17.6393 15.4066L17.597 15.4782L17.5539 15.5494L17.51 15.6203L17.4654 15.6907L17.42 15.7607L17.374 15.8303L17.3271 15.8995L17.2796 15.9683L17.2313 16.0367L17.1823 16.1045L17.1325 16.172L17.0821 16.239L17.0309 16.3055L16.9791 16.3716L16.9265 16.4371L16.8733 16.5022L16.8193 16.5668L16.7647 16.6309L16.7094 16.6945L16.6534 16.7575L16.5967 16.8201L16.5394 16.8821L16.4814 16.9436L16.4227 17.0046L16.3634 17.0649L16.3035 17.1248L16.2429 17.1841L16.1817 17.2428L16.1198 17.301L16.0573 17.3585L15.9942 17.4155L15.9305 17.4718L15.8662 17.5276L15.8013 17.5828L15.7358 17.6374L15.6697 17.6913L15.603 17.7446L15.5357 17.7973L15.4679 17.8494L15.3995 17.9008L15.3305 17.9515L15.261 18.0016L15.191 18.0511L15.1204 18.0999L15.0492 18.148L14.9776 18.1954L14.9054 18.2421L14.8328 18.2882L14.7596 18.3336L14.6859 18.3783L14.6117 18.4222L14.5371 18.4655L14.462 18.5081L14.3863 18.5499L14.3103 18.591L14.2338 18.6314L14.1568 18.671L14.0794 18.71L14.0016 18.7481L13.9233 18.7855L13.8446 18.8222L13.7655 18.8581L13.686 18.8933L13.6061 18.9276L13.5258 18.9613L13.4452 18.9941L13.3642 19.0262L13.2828 19.0575L13.201 19.088L13.1189 19.1177L13.0364 19.1466L12.9537 19.1747L12.8706 19.2021L12.7871 19.2286L12.7034 19.2543L12.6194 19.2792L12.5351 19.3033L12.4505 19.3266L12.3656 19.3491L12.2804 19.3707L12.1951 19.3915L12.1094 19.4115L12.0235 19.4306L11.9374 19.4489L11.851 19.4664L11.7644 19.4831L11.6776 19.4989L11.5907 19.5138L11.5035 19.5279L11.4161 19.5412L11.3286 19.5536L11.2409 19.5651L11.1531 19.5758L11.065 19.5856L10.9769 19.5946L10.8886 19.6028L10.8003 19.61L10.7118 19.6164L10.6232 19.6219L10.5344 19.6266L10.4456 19.6304L10.3568 19.6333L10.2678 19.6353L10.1789 19.6365L10.0898 19.6368L10.0007 19.6363L9.91163 19.6348L9.82247 19.6325L9.73331 19.6293L9.64415 19.6252L9.55499 19.6203L9.46588 19.6145L9.37672 19.6078L9.28766 19.6002L9.19859 19.5918L9.10958 19.5825L9.02065 19.5723L8.93177 19.5612L8.84294 19.5492L8.75425 19.5364L8.66561 19.5227L8.5771 19.5081L8.48869 19.4927L8.40038 19.4763L8.31225 19.4591L8.22421 19.441L8.13636 19.4221L8.0486 19.4022L7.96108 19.3816L7.8737 19.36L7.78651 19.3376L7.6995 19.3143L7.61272 19.2902L7.52614 19.2652L7.43974 19.2393L7.35362 19.2126L7.26773 19.185L7.18208 19.1565L7.09666 19.1272L7.01152 19.0971L6.92667 19.0661L6.84209 19.0343L6.75779 19.0016L6.67382 18.9681L6.59014 18.9337L6.50678 18.8985L6.42374 18.8625L6.34104 18.8257L6.25866 18.788L6.17665 18.7495L6.09502 18.7101L6.01376 18.67L5.93283 18.629L5.85232 18.5873L5.77223 18.5447L5.69247 18.5013L5.61318 18.4572L5.53431 18.4122L5.45586 18.3664L5.37782 18.3199L5.30026 18.2725L5.22312 18.2244L5.14644 18.1755L5.07028 18.1258L4.99454 18.0754L4.91932 18.0242L4.8446 17.9722L4.77036 17.9196L4.69663 17.8661L4.62343 17.8119L4.55075 17.7569L4.4786 17.7012L4.40699 17.6448L4.33593 17.5877L4.26543 17.5298L4.1955 17.4712L4.12613 17.412L4.05734 17.352L3.98914 17.2912L3.92154 17.2298L3.85453 17.1678L3.78813 17.105L3.72236 17.0416L3.6572 16.9775L3.59267 16.9127L3.52879 16.8473L3.46554 16.7812L3.40295 16.7145L3.34102 16.6471L3.27975 16.5791L3.21915 16.5105L3.15923 16.4412L3.1 16.3713L3.04146 16.3009L2.98362 16.2297L2.92649 16.1581L2.87006 16.0858L2.81436 16.013L2.75938 15.9395L2.70512 15.8655L2.65161 15.7909L2.59884 15.7158L2.54681 15.6401L2.49554 15.5639L2.44504 15.4872L2.3953 15.4099L2.34632 15.3321L2.29813 15.2538L2.25072 15.175L2.2041 15.0957L2.15827 15.0159L2.11325 14.9357L2.06902 14.8549L2.02561 14.7737L1.98301 14.692L1.94124 14.6099L1.90028 14.5273L1.86016 14.4443L1.82088 14.3609L1.78243 14.2771L1.74482 14.1928L1.70806 14.1081L1.67216 14.023L1.63712 13.9376L1.60294 13.8518L1.56962 13.7656L1.53718 13.679L1.5056 13.5921L1.47491 13.5049L1.4451 13.4173L1.41617 13.3294L1.38814 13.2411L1.36099 13.1526L1.33475 13.0638L1.3094 12.9746L1.28496 12.8852L1.26143 12.7955L1.2388 12.7055L1.21709 12.6153L1.1963 12.5248L1.17642 12.4341L1.15747 12.3432L1.13944 12.252L1.12234 12.1606L1.10617 12.069L1.09093 11.9773L1.07662 11.8853L1.06326 11.7931L1.05083 11.7008L1.03935 11.6083L1.02881 11.5157L1.01921 11.423L1.01056 11.3301L1.00286 11.2371L0.996106 11.1439L0.990309 11.0507L0.985465 10.9574L0.981575 10.864L0.978639 10.7705L0.976661 10.677L0.975647 10.5834L0.975586 10.4897ZM10.0355 3.6318L10.0142 1.83171L9.99391 1.83366L9.90097 1.84356L9.80826 1.85435L9.71559 1.86605L9.6233 1.87863L9.5311 1.89212L9.439 1.90652L9.34717 1.9218L9.25545 1.93799L9.16418 1.95502L9.07278 1.97301L8.98203 1.9918L8.89114 2.01154L8.80072 2.03213L8.7104 2.05362L8.62049 2.07594L8.53082 2.09916L8.44138 2.12324L8.35222 2.1482L8.26348 2.17398L8.17488 2.20066L8.08675 2.22817L7.99886 2.25655L7.91143 2.28571L7.82414 2.3158L7.73732 2.34669L7.65092 2.37839L7.56475 2.41097L7.47906 2.44433L7.39382 2.47851L7.30883 2.51356L7.22425 2.5494L7.14009 2.58607L7.05641 2.6235L6.97314 2.66175L6.89034 2.70077L6.80782 2.74065L6.72591 2.78126L6.64442 2.82266L6.56339 2.86484L6.48284 2.9078L6.40284 2.9515L6.32318 2.996L6.24402 3.04128L6.16557 3.0872L6.08735 3.13402L6.00988 3.18146L5.93293 3.22964L5.85634 3.27861L5.78037 3.32829L5.70496 3.3787L5.63025 3.42971L5.55581 3.48161L5.48213 3.53407L5.40901 3.58726L5.3364 3.64118L5.26445 3.69573L5.19315 3.75094L5.12227 3.80693L5.05219 3.86345L4.98262 3.92071L4.91371 3.9786L4.8454 4.03716L4.77779 4.09628L4.71069 4.15614L4.64436 4.21654L4.57859 4.27764L4.51359 4.33925L4.44917 4.40153L4.38548 4.46437L4.32243 4.52784L4.26 4.59195L4.19838 4.65651L4.13746 4.72162L4.07708 4.7875L4.01753 4.8538L3.95871 4.92056L3.9005 4.98802L3.84314 5.05591L3.7864 5.1244L3.73044 5.19337L3.6752 5.26289L3.62069 5.33288L3.56698 5.40333L3.51397 5.47431L3.46169 5.54584L3.41025 5.6177L3.3595 5.69016L3.30956 5.76301L3.26039 5.83632L3.21196 5.91009L3.16434 5.98429L3.11751 6.05886L3.07146 6.1339L3.02624 6.20931L2.98176 6.28519L2.93808 6.3615L2.89526 6.43808L2.8532 6.51508L2.81195 6.5925L2.77154 6.67025L2.73192 6.74838L2.69315 6.82678L2.65519 6.90556L2.61807 6.98467L2.58176 7.06415L2.5463 7.14386L2.51165 7.22395L2.47785 7.30432L2.44491 7.38492L2.4128 7.46585L2.38153 7.54706L2.35111 7.62851L2.32154 7.71023L2.29284 7.79214L2.26498 7.87438L2.23797 7.95681L2.21183 8.03947L2.18656 8.12227L2.16212 8.2054L2.13857 8.28862L2.11588 8.37207L2.09405 8.45567L2.07309 8.53949L2.05301 8.62342L2.03379 8.70753L2.01545 8.79178L1.99798 8.87616L1.98138 8.96065L1.96565 9.04527L1.9508 9.12999L1.93683 9.21485L1.92373 9.29975L1.91151 9.38475L1.90017 9.46984L1.8897 9.55498L1.88011 9.64016L1.8714 9.72544L1.86357 9.81072L1.85661 9.89599L1.85054 9.98136L1.84534 10.0667L1.84101 10.1521L1.83757 10.2374L1.83499 10.3228L1.8333 10.4081L1.83248 10.4934L1.83254 10.5786L1.83346 10.6638L1.83526 10.749L1.83793 10.8341L1.84147 10.9191L1.84588 11.004L1.85116 11.0889L1.8573 11.1736L1.86431 11.2582L1.87218 11.3428L1.88091 11.4272L1.8905 11.5115L1.90095 11.5956L1.91226 11.6796L1.92442 11.7634L1.93744 11.8471L1.95129 11.9306L1.96601 12.0139L1.98156 12.097L1.99796 12.1799L2.0152 12.2626L2.03327 12.3451L2.05218 12.4274L2.07193 12.5095L2.0925 12.5913L2.1139 12.6729L2.13612 12.7541L2.15917 12.8352L2.18303 12.916L2.20771 12.9965L2.2332 13.0767L2.25949 13.1566L2.28658 13.2362L2.31449 13.3155L2.34318 13.3945L2.37267 13.4732L2.40296 13.5515L2.43402 13.6295L2.46586 13.7072L2.49849 13.7845L2.53188 13.8614L2.56606 13.938L2.60099 14.0142L2.63669 14.0899L2.67314 14.1654L2.71034 14.2404L2.74829 14.315L2.78699 14.3892L2.82642 14.4629L2.86659 14.5363L2.90749 14.6092L2.94911 14.6817L2.99145 14.7537L3.03451 14.8252L3.07825 14.8963L3.12273 14.967L3.16789 15.0371L3.21376 15.1068L3.26031 15.176L3.30753 15.2447L3.35544 15.3129L3.40403 15.3806L3.45327 15.4478L3.50319 15.5145L3.55374 15.5806L3.60497 15.6462L3.65681 15.7112L3.7093 15.7757L3.76244 15.8397L3.81617 15.9031L3.87055 15.966L3.92552 16.0282L3.98113 16.09L4.03732 16.1511L4.09409 16.2116L4.15146 16.2715L4.20941 16.3309L4.26796 16.3897L4.32705 16.4478L4.38673 16.5054L4.44694 16.5623L4.5077 16.6186L4.56903 16.6743L4.63088 16.7293L4.69323 16.7837L4.75615 16.8374L4.81959 16.8906L4.88346 16.943L4.94793 16.9949L5.01282 17.046L5.07823 17.0965L5.14411 17.1463L5.21049 17.1954L5.27731 17.2439L5.34458 17.2917L5.41228 17.3387L5.48049 17.3852L5.54908 17.4308L5.61818 17.4759L5.68761 17.5202L5.75751 17.5638L5.82782 17.6067L5.89847 17.6488L5.96958 17.6903L6.04102 17.731L6.11288 17.7711L6.18507 17.8103L6.25767 17.8489L6.33056 17.8867L6.40382 17.9239L6.47746 17.9602L6.55142 17.9958L6.62567 18.0307L6.70024 18.0648L6.77509 18.0981L6.85032 18.1308L6.92578 18.1626L7.00156 18.1938L7.07759 18.2241L7.15389 18.2537L7.23047 18.2825L7.30724 18.3105L7.38429 18.3378L7.46162 18.3643L7.53913 18.3901L7.61688 18.415L7.69478 18.4392L7.77299 18.4626L7.85131 18.4853L7.92985 18.5071L8.00858 18.5282L8.08746 18.5485L8.16652 18.568L8.24567 18.5867L8.32506 18.6046L8.40454 18.6217L8.48411 18.6381L8.56387 18.6537L8.64373 18.6684L8.72367 18.6824L8.80372 18.6956L8.88385 18.708L8.96408 18.7196L9.0444 18.7304L9.12472 18.7404L9.20514 18.7497L9.2856 18.7581L9.36611 18.7657L9.44667 18.7726L9.52722 18.7786L9.60778 18.7839L9.68838 18.7884L9.76894 18.792L9.84949 18.7949L9.93005 18.797L10.0106 18.7983L10.0911 18.7988L10.1715 18.7985L10.2519 18.7974L10.3323 18.7956L10.4125 18.7929L10.4928 18.7895L10.5729 18.7853L10.6529 18.7803L10.7328 18.7746L10.8127 18.768L10.8924 18.7607L10.972 18.7526L11.0515 18.7437L11.1308 18.734L11.21 18.7236L11.289 18.7124L11.3679 18.7004L11.4465 18.6877L11.5251 18.6742L11.6034 18.6599L11.6816 18.6449L11.7595 18.6292L11.8373 18.6126L11.9148 18.5954L11.9921 18.5773L12.0691 18.5585L12.146 18.539L12.2225 18.5187L12.2988 18.4977L12.375 18.476L12.4507 18.4535L12.5263 18.4303L12.6015 18.4064L12.6765 18.3818L12.7512 18.3564L12.8255 18.3303L12.8996 18.3035L12.9733 18.276L13.0467 18.2478L13.1198 18.2189L13.1925 18.1893L13.2649 18.1589L13.3369 18.1279L13.4086 18.0962L13.4798 18.0639L13.5508 18.0308L13.6214 17.9971L13.6915 17.9627L13.7613 17.9276L13.8306 17.8919L13.8996 17.8555L13.9682 17.8184L14.0362 17.7807L14.1039 17.7424L14.1712 17.7035L14.2381 17.6638L14.3044 17.6236L14.3704 17.5827L14.4358 17.5412L14.5008 17.4991L14.5654 17.4564L14.6295 17.413L14.6929 17.3691L14.756 17.3246L14.8186 17.2795L14.8807 17.2338L14.9423 17.1874L15.0033 17.1406L15.064 17.0931L15.124 17.0452L15.1834 16.9966L15.2425 16.9475L15.3009 16.8978L15.3588 16.8476L15.4161 16.7969L15.4729 16.7456L15.5291 16.6938L15.5848 16.6415L15.6398 16.5887L15.6944 16.5353L15.7484 16.4815L15.8017 16.4271L15.8545 16.3723L15.9066 16.317L15.9581 16.2613L16.0092 16.2049L16.0595 16.1483L16.1093 16.091L16.1584 16.0334L16.2069 15.9753L16.2548 15.9168L16.302 15.8579L16.3487 15.7985L16.3946 15.7387L16.44 15.6784L16.4847 15.6178L16.5288 15.5568L16.5722 15.4953L16.6149 15.4336L16.657 15.3714L16.6984 15.3089L16.7391 15.2459L16.7793 15.1825L16.8187 15.1189L16.8574 15.055L16.8955 14.9905L16.9328 14.9259L16.9695 14.8609L17.0055 14.7955L17.0408 14.73L17.0754 14.664L17.1094 14.5977L17.1425 14.5313L17.1751 14.4644L17.2069 14.3973L17.238 14.33L17.2684 14.2624L17.2981 14.1945L17.327 14.1264L17.3553 14.058L17.3828 13.9893L17.4096 13.9207L17.4357 13.8515L17.4611 13.7823L17.4857 13.7127L17.5097 13.6431L17.5329 13.5732L17.5553 13.5033L17.5771 13.4329L17.598 13.3626L17.6182 13.292L17.6378 13.2214L17.6566 13.1504L17.6746 13.0795L17.6919 13.0084L17.7085 12.9371L17.7243 12.8657L17.7394 12.7942L17.7537 12.7227L17.7673 12.6509L17.7802 12.5793L17.7923 12.5073L17.8037 12.4354L17.8143 12.3634L17.8242 12.2913L17.8333 12.2193L17.8417 12.147L17.8493 12.075L17.8563 12.0027L17.8624 11.9306L17.8678 11.8582L17.8725 11.7861L17.8764 11.7138L17.8796 11.6414L17.882 11.5692L17.8838 11.4972L17.8847 11.4248L17.8849 11.3526L17.8844 11.2805L17.8831 11.2085L17.8811 11.1365L17.8784 11.0647L17.8749 10.9926L17.8707 10.9209L17.8658 10.8492L17.8601 10.7777L17.8537 10.7061L17.8466 10.6348L17.8387 10.5634L17.8301 10.4923L17.8208 10.4213L17.8108 10.3504L17.8 10.2796L17.7886 10.209L17.7764 10.1387L17.7635 10.0683L17.7499 9.9982L17.7355 9.92835L17.7205 9.85845L17.7048 9.78907L17.6883 9.71959L17.6713 9.65059L17.6534 9.58148L17.6348 9.5129L17.6156 9.4444L17.5957 9.37605L17.5751 9.30812L17.5539 9.24042L17.5318 9.17277L17.5093 9.10563L17.4859 9.03854L17.462 8.97187L17.4373 8.90534L17.412 8.83928L17.3859 8.77331L17.3593 8.70771L17.332 8.64254L17.3041 8.57765L17.2754 8.51285L17.2463 8.44865L17.2163 8.38451L17.1858 8.32097L17.1547 8.25767L17.1228 8.1946L17.0905 8.13204L17.0574 8.06977L17.0237 8.00777L16.9896 7.94638L16.9547 7.88514L16.9192 7.8244L16.8831 7.76395L16.8465 7.70411L16.8092 7.6444L16.7714 7.58526L16.7329 7.5264L16.6939 7.46805L16.6544 7.41022L16.6142 7.35262L16.5735 7.29553L16.5323 7.23887L16.4904 7.18272L16.4481 7.12689L16.4051 7.07163L16.3617 7.01674L16.3177 6.96237L16.2732 6.90846L16.2281 6.85498L16.1825 6.802L16.1365 6.7495L16.09 6.69751L16.0429 6.64599L15.9952 6.59489L15.9473 6.54449L15.8986 6.49437L15.8496 6.44495L15.8001 6.39591L15.7502 6.34747L15.6996 6.29941L15.6488 6.25209L15.5974 6.20515L15.5455 6.15877L15.4934 6.113L15.4408 6.06774L15.3875 6.02291L15.334 5.97873L15.2801 5.9351L15.2257 5.89205L15.1709 5.8495L15.1158 5.80766L15.0601 5.76614L15.0043 5.72542L14.9479 5.68521L14.8912 5.64552L14.8342 5.60648L14.7766 5.56791L14.719 5.53013L14.6607 5.49277L14.6023 5.45607L14.5434 5.41993L14.4842 5.3844L14.4248 5.34952L14.3651 5.3153L14.3048 5.28149L14.2445 5.24849L14.1838 5.21599L14.1227 5.18415L14.0615 5.15297L13.9999 5.12235L13.938 5.09233L13.8759 5.06302L13.8135 5.03426L13.751 5.00621L13.6881 4.97872L13.6229 4.95104L13.5617 4.92575L13.498 4.90013L13.4343 4.8753L13.3702 4.85094L13.3061 4.82738L13.2416 4.80438L13.1771 4.78208L13.1122 4.76034L13.0473 4.73934L12.9821 4.71896L12.9168 4.69923L12.8515 4.6802L12.7858 4.66176L12.72 4.64396L12.6542 4.62688L12.5883 4.61045L12.5219 4.59462L12.4558 4.57953L12.3894 4.56503L12.3229 4.55124L12.2563 4.53808L12.1897 4.5256L12.1229 4.51377L12.0562 4.50263L11.9892 4.49211L11.9223 4.48229L11.8553 4.47312L11.7882 4.4646L11.7211 4.45676L11.654 4.44959L11.5869 4.44307L11.5197 4.43722L11.4525 4.43202L11.3852 4.42749L11.3181 4.42362L11.251 4.42042L11.1836 4.41787L11.1166 4.41599L11.0495 4.41477L10.9824 4.41421L10.9152 4.4143L10.9017 4.41446L10.9229 6.20146L10.961 6.20127L11.01 6.20155L11.0591 6.2023L11.1082 6.20356L11.1573 6.20529L11.2065 6.20754L11.2556 6.21025L11.3048 6.21343L11.354 6.21712L11.4031 6.22128L11.4523 6.22596L11.5015 6.2311L11.5507 6.23676L11.5998 6.24288L11.6489 6.24947L11.698 6.25663L11.747 6.2642L11.796 6.27229L11.845 6.28089L11.8939 6.28996L11.9428 6.29955L11.9916 6.3096L12.0403 6.32012L12.089 6.33115L12.1376 6.3427L12.1861 6.35472L12.2345 6.3672L12.2829 6.3802L12.3311 6.39366L12.3793 6.40764L12.4273 6.42209L12.4752 6.437L12.523 6.45243L12.5707 6.46833L12.6183 6.48474L12.6657 6.50161L12.713 6.51896L12.7602 6.53677L12.8072 6.5551L12.854 6.57389L12.9007 6.59316L12.9473 6.61293L12.9936 6.63313L13.0398 6.65384L13.0858 6.67498L13.1317 6.69662L13.1773 6.71874L13.2228 6.74132L13.268 6.76437L13.3131 6.78788L13.3579 6.81182L13.4026 6.83627L13.447 6.86115L13.4912 6.88649L13.5352 6.91229L13.579 6.93857L13.6224 6.96527L13.6657 6.99243L13.7087 7.02006L13.7515 7.04811L13.794 7.07659L13.8362 7.10553L13.8782 7.13493L13.9199 7.16472L13.9613 7.19496L14.0025 7.22568L14.0434 7.25677L14.0839 7.28833L14.1242 7.32031L14.1642 7.35266L14.2039 7.38548L14.2433 7.41873L14.2824 7.45234L14.3211 7.48638L14.3595 7.52083L14.3976 7.55571L14.4354 7.59097L14.4728 7.62664L14.5099 7.66268L14.5467 7.69915L14.5831 7.73599L14.6191 7.77326L14.6548 7.81085L14.6901 7.84886L14.7251 7.88724L14.7597 7.926L14.7939 7.96508L14.8278 8.00459L14.8613 8.04442L14.8944 8.08463L14.927 8.12521L14.9593 8.16612L14.9912 8.20741L15.0227 8.24902L15.0538 8.291L15.0845 8.33327L15.1148 8.37591L15.1446 8.41887L15.1741 8.46216L15.2031 8.50579L15.2316 8.54969L15.2598 8.59396L15.2875 8.63852L15.3148 8.68335L15.3416 8.72852L15.368 8.77401L15.394 8.81973L15.4194 8.86579L15.4445 8.91212L15.469 8.95873L15.4932 9.00562L15.5168 9.0528L15.54 9.10025L15.5627 9.14794L15.5849 9.19586L15.6066 9.24411L15.6279 9.29255L15.6487 9.34127L15.669 9.39022L15.6888 9.4394L15.7081 9.48882L15.7269 9.53842L15.7453 9.58831L15.7631 9.63838L15.7804 9.68869L15.7973 9.73918L15.8135 9.78991L15.8293 9.84078L15.8446 9.89188L15.8594 9.94317L15.8736 9.99464L15.8873 10.0463L15.9006 10.0981L15.9132 10.1501L15.9254 10.2022L15.937 10.2545L15.9481 10.307L15.9587 10.3596L15.9687 10.4123L15.9782 10.4653L15.9872 10.5183L15.9956 10.5714L16.0034 10.6247L16.0108 10.678L16.0176 10.7315L16.0238 10.7851L16.0295 10.8389L16.0346 10.8926L16.0392 10.9465L16.0433 11.0005L16.0468 11.0545L16.0497 11.1086L16.0521 11.1628L16.0539 11.2171L16.0551 11.2714L16.0558 11.3258L16.056 11.3802L16.0556 11.4346L16.0546 11.4891L16.053 11.5436L16.0509 11.5981L16.0483 11.6527L16.045 11.7072L16.0413 11.7618L16.0369 11.8164L16.032 11.8709L16.0265 11.9255L16.0204 11.98L16.0138 12.0346L16.0066 12.089L15.9989 12.1435L15.9905 12.1979L15.9816 12.2523L15.9722 12.3066L15.9622 12.3609L15.9516 12.4152L15.9404 12.4693L15.9287 12.5234L15.9164 12.5774L15.9036 12.6313L15.8902 12.6851L15.8762 12.7389L15.8616 12.7925L15.8465 12.846L15.8309 12.8994L15.8146 12.9527L15.7979 13.0059L15.7805 13.059L15.7626 13.1119L15.7441 13.1647L15.7251 13.2173L15.7055 13.2698L15.6854 13.3221L15.6647 13.3742L15.6435 13.4262L15.6217 13.4781L15.5993 13.5297L15.5765 13.5812L15.5531 13.6325L15.5291 13.6835L15.5046 13.7344L15.4795 13.7851L15.4539 13.8355L15.4278 13.8858L15.4011 13.9358L15.3739 13.9855L15.3462 14.0351L15.3179 14.0844L15.2891 14.1335L15.2598 14.1823L15.23 14.2309L15.1997 14.2792L15.1687 14.3272L15.1374 14.375L15.1054 14.4225L15.073 14.4697L15.0401 14.5166L15.0067 14.5632L14.9728 14.6096L14.9383 14.6556L14.9034 14.7013L14.868 14.7467L14.8321 14.7918L14.7957 14.8366L14.7588 14.881L14.7214 14.9251L14.6835 14.9689L14.6452 15.0123L14.6064 15.0554L14.5671 15.0981L14.5274 15.1405L14.4872 15.1825L14.4466 15.2241L14.4055 15.2654L14.3638 15.3063L14.3219 15.3468L14.2794 15.3869L14.2365 15.4266L14.1931 15.466L14.1493 15.5049L14.1052 15.5434L14.0605 15.5816L14.0155 15.6192L13.97 15.6566L13.9241 15.6934L13.8778 15.7298L13.8311 15.7658L13.784 15.8014L13.7365 15.8365L13.6886 15.8712L13.6403 15.9055L13.5917 15.9392L13.5426 15.9726L13.4932 16.0054L13.4434 16.0378L13.3932 16.0698L13.3427 16.1012L13.2918 16.1322L13.2406 16.1627L13.189 16.1927L13.1371 16.2222L13.0848 16.2513L13.0322 16.2798L12.9793 16.3079L12.926 16.3354L12.8725 16.3624L12.8186 16.3889L12.7644 16.415L12.7099 16.4405L12.6551 16.4654L12.6 16.4899L12.5447 16.5138L12.489 16.5372L12.4331 16.5601L12.3769 16.5824L12.3204 16.6042L12.2637 16.6255L12.2067 16.6462L12.1495 16.6663L12.092 16.6859L12.0343 16.705L11.9763 16.7235L11.9181 16.7414L11.8597 16.7588L11.8011 16.7756L11.7423 16.7919L11.6832 16.8075L11.624 16.8226L11.5646 16.8372L11.505 16.8511L11.4451 16.8645L11.3852 16.8773L11.325 16.8895L11.2647 16.9012L11.2043 16.9123L11.1436 16.9227L11.0828 16.9326L11.022 16.9418L10.9609 16.9505L10.8997 16.9586L10.8384 16.9662L10.777 16.973L10.7155 16.9793L10.6539 16.985L10.5922 16.9901L10.5304 16.9946L10.4685 16.9985L10.4065 17.0018L10.3444 17.0044L10.2823 17.0065L10.2201 17.008L10.1579 17.0088L10.0956 17.009L10.0332 17.0087L9.97091 17.0076L9.90849 17.006L9.84608 17.0038L9.78366 17.0009L9.7212 16.9975L9.65878 16.9934L9.59632 16.9887L9.53391 16.9834L9.47149 16.9775L9.40908 16.9709L9.34671 16.9638L9.28439 16.956L9.22206 16.9476L9.15983 16.9386L9.09765 16.9289L9.03552 16.9187L8.97343 16.9078L8.91144 16.8964L8.84953 16.8842L8.78773 16.8715L8.72597 16.8582L8.66434 16.8442L8.60282 16.8296L8.54138 16.8144L8.48009 16.7986L8.41889 16.7822L8.35783 16.7652L8.29696 16.7476L8.23618 16.7294L8.17554 16.7105L8.11509 16.691L8.05482 16.671L7.99465 16.6503L7.93471 16.629L7.87496 16.6071L7.81535 16.5847L7.75598 16.5616L7.69679 16.5379L7.63778 16.5136L7.57901 16.4887L7.52048 16.4633L7.46218 16.4372L7.40406 16.4105L7.34623 16.3833L7.28863 16.3555L7.23126 16.3271L7.17413 16.2981L7.11733 16.2686L7.06075 16.2384L7.00446 16.2077L6.94845 16.1764L6.89272 16.1445L6.83727 16.1121L6.78215 16.0791L6.72731 16.0455L6.6728 16.0115L6.61861 15.9768L6.56475 15.9416L6.51122 15.9057L6.45801 15.8694L6.40513 15.8326L6.35263 15.7952L6.30045 15.7572L6.24865 15.7187L6.19718 15.6797L6.14612 15.6401L6.09544 15.6001L6.04513 15.5594L5.9952 15.5184L5.94564 15.4767L5.89651 15.4346L5.84779 15.3919L5.79945 15.3487L5.75152 15.3051L5.70407 15.2609L5.65699 15.2163L5.61033 15.1711L5.56414 15.1255L5.51841 15.0794L5.47311 15.0328L5.42822 14.9857L5.38381 14.9382L5.33991 14.8902L5.29643 14.8417L5.25341 14.7928L5.21092 14.7435L5.16884 14.6937L5.12732 14.6434L5.08623 14.5927L5.04569 14.5416L5.00562 14.49L4.96607 14.438L4.92703 14.3856L4.88846 14.3328L4.85045 14.2796L4.813 14.226L4.77602 14.1719L4.7396 14.1175L4.70372 14.0627L4.66838 14.0075L4.63358 13.9519L4.59934 13.8959L4.56565 13.8396L4.53252 13.7829L4.49995 13.7258L4.46795 13.6685L4.43652 13.6107L4.40567 13.5526L4.37539 13.4942L4.3457 13.4354L4.31659 13.3763L4.28808 13.3169L4.26016 13.2572L4.23283 13.1971L4.20611 13.1368L4.17999 13.0761L4.15448 13.0152L4.12958 12.954L4.1053 12.8925L4.08164 12.8307L4.05859 12.7687L4.03617 12.7064L4.01438 12.6438L3.99322 12.581L3.97269 12.5179L3.9528 12.4546L3.93354 12.3911L3.91493 12.3273L3.89696 12.2634L3.87964 12.1992L3.86297 12.1348L3.84696 12.0702L3.83159 12.0054L3.81688 11.9404L3.80283 11.8752L3.78945 11.8099L3.77673 11.7444L3.76467 11.6787L3.75328 11.6129L3.74256 11.5469L3.73252 11.4808L3.72314 11.4146L3.71445 11.3482L3.70643 11.2817L3.69909 11.215L3.69243 11.1483L3.68645 11.0815L3.68115 11.0145L3.67654 10.9475L3.67262 10.8804L3.66938 10.8132L3.66683 10.746L3.66498 10.6786L3.66381 10.6113L3.66333 10.5438L3.66355 10.4763L3.66446 10.4088L3.66607 10.3413L3.66836 10.2738L3.67136 10.2062L3.67505 10.1386L3.67944 10.071L3.68453 10.0034L3.6903 9.93583L3.69678 9.86831L3.70397 9.80076L3.71184 9.73329L3.72041 9.66583L3.72968 9.59841L3.73965 9.53104L3.75032 9.46376L3.76168 9.39653L3.77374 9.32939L3.7865 9.2623L3.79996 9.1953L3.81411 9.12845L3.82896 9.06164L3.8445 8.99496L3.86073 8.92839L3.87765 8.86195L3.89527 8.79566L3.91358 8.72945L3.93258 8.66344L3.95228 8.59756L3.97265 8.53183L3.99372 8.46623L4.01547 8.40087L4.0379 8.33565L4.06102 8.27062L4.08482 8.20577L4.10929 8.14111L4.13445 8.07668L4.16028 8.01245L4.18678 7.94844L4.21396 7.88467L4.24181 7.82108L4.27032 7.75778L4.2995 7.69471L4.32935 7.63187L4.35986 7.56932L4.39103 7.50704L4.42285 7.445L4.45533 7.38329L4.48846 7.32181L4.52224 7.26065L4.55667 7.19978L4.59174 7.13919L4.62746 7.07897L4.66381 7.01903L4.7008 6.95942L4.73843 6.90014L4.77667 6.84118L4.81557 6.7826L4.85503 6.72435L4.89519 6.66647L4.93591 6.60891L4.97724 6.55173L5.01923 6.49498L5.06177 6.43854L5.10497 6.38253L5.14873 6.3269L5.1931 6.27168L5.23803 6.21689L5.28357 6.16247L5.32972 6.10847L5.37642 6.05489L5.42369 6.00178L5.47156 5.94908L5.51995 5.89681L5.56895 5.84501L5.61851 5.79363L5.66858 5.74276L5.71922 5.69232L5.77041 5.64234L5.82217 5.59287L5.87444 5.54383L5.92722 5.49534L5.98057 5.44728L6.03443 5.39978L6.08875 5.35275L6.14364 5.30623L6.19905 5.26022L6.25492 5.21473L6.3113 5.16975L6.3682 5.12534L6.42557 5.08144L6.4834 5.0381L6.54175 4.99527L6.60052 4.95301L6.65975 4.9113L6.7195 4.87016L6.77967 4.82958L6.84027 4.7896L6.90137 4.75014L6.96285 4.71129L7.0248 4.67302L7.08717 4.63533L7.14996 4.59824L7.21312 4.56174L7.27675 4.52585L7.34076 4.49055L7.40514 4.45587L7.46994 4.42181L7.53511 4.38836L7.60066 4.35554L7.66658 4.32334L7.73288 4.29177L7.79955 4.26084L7.86655 4.23054L7.93392 4.20089L8.00162 4.17188L8.06964 4.14353L8.138 4.11582L8.20663 4.08877L8.27564 4.06239L8.34493 4.03666L8.41454 4.01161L8.48444 3.98722L8.55461 3.96351L8.62507 3.94047L8.69576 3.91812L8.76678 3.89644L8.83803 3.87546L8.90956 3.85516L8.98129 3.83555L9.05328 3.81664L9.12552 3.79843L9.19799 3.78091L9.27064 3.7641L9.34353 3.74799L9.4166 3.73259L9.48987 3.7179L9.56336 3.70393L9.637 3.69066L9.71082 3.67812L9.78483 3.66629L9.85898 3.65518L9.93327 3.64479L10.0077 3.63513L10.0355 3.6318ZM10.0669 6.28229L10.0455 4.47565L9.98447 4.48418L9.91887 4.49401L9.85323 4.5045L9.78801 4.51558L9.7227 4.52735L9.65771 4.53971L9.59286 4.55271L9.52825 4.56632L9.46378 4.58058L9.39945 4.59547L9.3353 4.61096L9.27143 4.62708L9.20762 4.64383L9.14632 4.66056L9.08101 4.67913L9.01794 4.69769L8.95515 4.71686L8.89269 4.73659L8.83037 4.75697L8.76828 4.77796L8.70647 4.79952L8.64499 4.82163L8.58374 4.8444L8.52278 4.86768L8.46204 4.89162L8.40178 4.91607L8.34151 4.94118L8.28172 4.9668L8.2222 4.99298L8.1631 5.01972L8.10415 5.04707L8.04552 5.07499L7.9874 5.10336L7.92938 5.1324L7.87197 5.1619L7.81465 5.19206L7.75789 5.22259L7.70123 5.25386L7.64512 5.28547L7.58939 5.31768L7.53394 5.35046L7.47892 5.3837L7.42417 5.41755L7.36998 5.45177L7.31603 5.4866L7.26259 5.5219L7.20952 5.55767L7.15683 5.59399L7.10447 5.63084L7.05271 5.668L7.00124 5.70583L6.95018 5.74407L6.8996 5.78278L6.84948 5.82192L6.79968 5.86161L6.75045 5.90168L6.70164 5.94221L6.65321 5.98331L6.60538 6.02468L6.55788 6.06662L6.51084 6.10898L6.46432 6.15171L6.41832 6.19487L6.37264 6.23853L6.32762 6.28248L6.28301 6.3269L6.23883 6.37178L6.19521 6.41699L6.15206 6.46267L6.10942 6.50867L6.0673 6.55505L6.02564 6.60185L5.98445 6.64907L5.94396 6.69653L5.90385 6.74445L5.86425 6.79275L5.82521 6.84132L5.78673 6.89023L5.74867 6.9396L5.71122 6.9892L5.67429 7.03918L5.63791 7.08949L5.60205 7.14012L5.5668 7.19099L5.53206 7.24223L5.49784 7.2938L5.46418 7.34565L5.43112 7.39773L5.39863 7.45014L5.36665 7.50293L5.33523 7.55585L5.30442 7.60911L5.27413 7.66264L5.24448 7.71631L5.21536 7.77036L5.18674 7.82468L5.15883 7.87911L5.13143 7.9339L5.10465 7.98888L5.07842 8.044L5.0528 8.09945L5.02774 8.15504L5.00328 8.21087L4.97939 8.26688L4.95616 8.32307L4.93348 8.37946L4.91137 8.43608L4.88986 8.49284L4.86901 8.54973L4.84867 8.60687L4.82904 8.66404L4.80991 8.72146L4.79145 8.77901L4.77354 8.83671L4.75629 8.89449L4.7396 8.95242L4.72356 9.01044L4.70809 9.06865L4.69324 9.1269L4.679 9.1853L4.66538 9.24378L4.65236 9.30232L4.63995 9.361L4.62816 9.41972L4.61697 9.47849L4.6064 9.5374L4.59644 9.59631L4.58709 9.65531L4.57836 9.71426L4.57023 9.77336L4.56272 9.83246L4.55582 9.8916L4.54953 9.95074L4.54385 10.0099L4.53879 10.0691L4.53434 10.1283L4.5305 10.1875L4.52726 10.2467L4.52464 10.3058L4.52263 10.365L4.52122 10.4241L4.52043 10.4832L4.52023 10.5423L4.52065 10.6013L4.52167 10.6602L4.5233 10.7191L4.52553 10.7779L4.52836 10.8368L4.53179 10.8955L4.53582 10.9541L4.54046 11.0126L4.54568 11.0711L4.55151 11.1294L4.55793 11.1877L4.56494 11.2459L4.57254 11.3039L4.58073 11.3618L4.58952 11.4196L4.59888 11.4772L4.60884 11.5348L4.61937 11.5922L4.63049 11.6494L4.64219 11.7065L4.65445 11.7634L4.66731 11.8202L4.68072 11.8767L4.69471 11.9332L4.70927 11.9894L4.7244 12.0455L4.74006 12.1013L4.75633 12.157L4.77312 12.2124L4.79051 12.2677L4.80842 12.3228L4.82688 12.3776L4.84591 12.4321L4.86546 12.4865L4.88556 12.5406L4.90622 12.5945L4.9274 12.6482L4.9491 12.7016L4.97135 12.7547L4.99412 12.8076L5.01745 12.8602L5.04125 12.9126L5.06561 12.9646L5.09048 13.0164L5.11582 13.0679L5.14172 13.1191L5.16809 13.1701L5.19497 13.2207L5.22237 13.271L5.25024 13.321L5.27861 13.3707L5.30746 13.4201L5.33682 13.4692L5.36665 13.5179L5.39695 13.5663L5.42771 13.6144L5.45899 13.6622L5.49064 13.7095L5.52285 13.7565L5.55544 13.8032L5.58854 13.8495L5.62206 13.8955L5.65605 13.9411L5.69046 13.9863L5.72534 14.0312L5.76059 14.0756L5.79631 14.1197L5.83245 14.1634L5.86901 14.2068L5.906 14.2497L5.9434 14.2922L5.98118 14.3343L6.01937 14.3761L6.05794 14.4174L6.09694 14.4583L6.1363 14.4988L6.17609 14.5388L6.2162 14.5785L6.25674 14.6177L6.29765 14.6565L6.33884 14.6948L6.3805 14.7328L6.42243 14.7703L6.46474 14.8073L6.50743 14.8439L6.55044 14.88L6.59378 14.9157L6.63745 14.951L6.68145 14.9857L6.72577 15.0201L6.77042 15.054L6.81539 15.0873L6.8606 15.1202L6.90614 15.1527L6.95201 15.1847L6.99815 15.2162L7.04462 15.2472L7.09133 15.2778L7.13832 15.3078L7.18559 15.3374L7.23309 15.3665L7.28087 15.3951L7.32893 15.4232L7.37718 15.4508L7.42576 15.4779L7.47447 15.5045L7.52352 15.5306L7.57275 15.5563L7.62217 15.5813L7.67187 15.606L7.7218 15.63L7.77187 15.6537L7.82213 15.6767L7.87267 15.6993L7.92331 15.7213L7.97417 15.7428L8.02523 15.7639L8.07647 15.7843L8.1278 15.8043L8.17937 15.8237L8.23108 15.8427L8.28293 15.8611L8.33492 15.879L8.3871 15.8964L8.43937 15.9131L8.49178 15.9295L8.54433 15.9452L8.59697 15.9605L8.64971 15.9752L8.70259 15.9893L8.75556 16.003L8.80862 16.0161L8.86178 16.0287L8.91503 16.0408L8.96838 16.0523L9.02177 16.0633L9.07521 16.0737L9.12879 16.0836L9.18232 16.093L9.236 16.1019L9.28967 16.1102L9.34339 16.118L9.39715 16.1253L9.45092 16.132L9.50473 16.1382L9.55855 16.1438L9.61241 16.1489L9.66627 16.1535L9.72013 16.1575L9.77399 16.1611L9.8278 16.164L9.88161 16.1665L9.93547 16.1684L9.98924 16.1698L10.043 16.1707L10.0967 16.171L10.1503 16.1708L10.204 16.17L10.2576 16.1688L10.311 16.1671L10.3645 16.1648L10.4179 16.1619L10.4712 16.1586L10.5244 16.1547L10.5775 16.1503L10.6306 16.1454L10.6835 16.14L10.7364 16.134L10.7891 16.1276L10.8418 16.1206L10.8943 16.1132L10.9467 16.1052L10.999 16.0967L11.0511 16.0877L11.1031 16.0782L11.1549 16.0682L11.2066 16.0577L11.2583 16.0467L11.3096 16.0352L11.3608 16.0232L11.4119 16.0107L11.4628 15.9977L11.5135 15.9842L11.5641 15.9703L11.6144 15.9558L11.6646 15.9409L11.7145 15.9255L11.7643 15.9096L11.8139 15.8933L11.8632 15.8764L11.9123 15.8591L11.9612 15.8414L12.0099 15.8231L12.0583 15.8044L12.1066 15.7853L12.1546 15.7656L12.2023 15.7456L12.2498 15.725L12.297 15.7041L12.344 15.6827L12.3907 15.6608L12.4372 15.6385L12.4833 15.6158L12.5293 15.5926L12.5749 15.569L12.6203 15.545L12.6653 15.5205L12.71 15.4957L12.7546 15.4704L12.7987 15.4447L12.8426 15.4185L12.8862 15.392L12.9294 15.3651L12.9724 15.3377L13.0149 15.3101L13.0572 15.2819L13.0993 15.2534L13.1409 15.2245L13.1821 15.1952L13.2232 15.1655L13.2637 15.1355L13.304 15.1051L13.344 15.0743L13.3835 15.0432L13.4228 15.0116L13.4617 14.9798L13.5001 14.9476L13.5383 14.9149L13.5761 14.882L13.6134 14.8488L13.6505 14.8151L13.6871 14.7813L13.7234 14.747L13.7593 14.7124L13.7947 14.6775L13.8298 14.6423L13.8646 14.6068L13.8989 14.5709L13.9327 14.5348L13.9663 14.4983L13.9994 14.4615L14.032 14.4246L14.0644 14.3872L14.0962 14.3496L14.1276 14.3117L14.1587 14.2735L14.1893 14.2351L14.2195 14.1964L14.2493 14.1574L14.2787 14.1181L14.3076 14.0787L14.336 14.039L14.3641 13.999L14.3917 13.9588L14.4188 13.9184L14.4456 13.8776L14.4718 13.8368L14.4977 13.7957L14.5231 13.7543L14.5481 13.7128L14.5725 13.671L14.5966 13.629L14.6201 13.587L14.6433 13.5445L14.666 13.502L14.6882 13.4593L14.71 13.4163L14.7312 13.3734L14.7521 13.33L14.7724 13.2868L14.7924 13.2431L14.8118 13.1994L14.8308 13.1554L14.8493 13.1115L14.8673 13.0674L14.8849 13.023L14.902 12.9786L14.9186 12.9341L14.9348 12.8894L14.9504 12.8446L14.9656 12.7997L14.9803 12.7547L14.9946 12.7095L15.0084 12.6643L15.0217 12.619L15.0345 12.5736L15.0468 12.5282L15.0586 12.4826L15.07 12.4369L15.0809 12.3913L15.0913 12.3454L15.1012 12.2996L15.1107 12.2538L15.1197 12.2079L15.1282 12.1619L15.1362 12.1158L15.1437 12.0698L15.1507 12.0237L15.1573 11.9776L15.1634 11.9315L15.169 11.8854L15.1741 11.8391L15.1788 11.7931L15.183 11.7468L15.1867 11.7007L15.1898 11.6546L15.1926 11.6084L15.1948 11.5623L15.1966 11.5163L15.1979 11.4701L15.1987 11.4242L15.1991 11.3781L15.199 11.3321L15.1984 11.2862L15.1973 11.2404L15.1958 11.1945L15.1938 11.1487L15.1913 11.1032L15.1883 11.0574L15.1849 11.0119L15.1811 10.9665L15.1767 10.921L15.1719 10.8758L15.1666 10.8305L15.1609 10.7854L15.1548 10.7404L15.1481 10.6954L15.141 10.6506L15.1335 10.606L15.1255 10.5614L15.117 10.517L15.1081 10.4726L15.0988 10.4284L15.089 10.3844L15.0787 10.3405L15.068 10.2966L15.057 10.2531L15.0454 10.2095L15.0334 10.1663L15.021 10.1231L15.0081 10.0802L14.9948 10.0373L14.9811 9.9946L14.967 9.95219L14.9524 9.90993L14.9374 9.86771L14.922 9.82586L14.9062 9.78411L14.89 9.74264L14.8733 9.70127L14.8562 9.66008L14.8388 9.61926L14.8209 9.57849L14.8027 9.53805L14.784 9.49784L14.7649 9.45773L14.7454 9.41785L14.7257 9.37834L14.7054 9.33893L14.6848 9.29989L14.6638 9.26108L14.6424 9.22233L14.6207 9.18403L14.5985 9.14588L14.5761 9.10806L14.5531 9.07038L14.53 9.03312L14.5063 8.99595L14.4825 8.9592L14.4581 8.92268L14.4335 8.88645L14.4084 8.8504L14.3831 8.81473L14.3575 8.77939L14.3314 8.74418L14.3051 8.7094L14.2783 8.67485L14.2514 8.64067L14.224 8.60668L14.1963 8.57306L14.1683 8.53973L14.14 8.50667L14.1115 8.47404L14.0825 8.44159L14.0533 8.40957L14.0238 8.37778L13.994 8.34645L13.9638 8.31527L13.9335 8.28455L13.9027 8.25402L13.8718 8.22396L13.8406 8.19422L13.8091 8.16477L13.7772 8.13564L13.7452 8.10693L13.7129 8.07855L13.6802 8.05041L13.6475 8.02282L13.6143 7.99538L13.581 7.9684L13.5474 7.9418L13.5136 7.91543L13.4796 7.88953L13.4454 7.86405L13.4108 7.8388L13.3759 7.81388L13.3411 7.78953L13.3058 7.76535L13.2706 7.74174L13.235 7.71837L13.1992 7.69536L13.1631 7.67274L13.127 7.65058L13.0906 7.6287L13.0541 7.60728L13.0172 7.58615L12.9804 7.56553L12.9433 7.54524L12.906 7.52528L12.8685 7.50573L12.831 7.48666L12.7932 7.46786L12.7553 7.44949L12.7172 7.43154L12.6791 7.414L12.6406 7.39675L12.6023 7.38001L12.5637 7.36365L12.5249 7.34761L12.486 7.33205L12.4471 7.3169L12.408 7.30212L12.3687 7.28768L12.3295 7.27374L12.29 7.26014L12.2505 7.24695L12.211 7.23419L12.1713 7.22185L12.1316 7.20988L12.0915 7.19828L12.0517 7.18716L12.0117 7.1764L11.9716 7.16607L11.9315 7.15611L11.8912 7.14658L11.851 7.13746L11.8108 7.12876L11.7704 7.12044L11.7299 7.11249L11.6897 7.10506L11.6491 7.09795L11.6087 7.09127L11.568 7.08495L11.5277 7.07911L11.4869 7.07359L11.4465 7.06859L11.4059 7.06392L11.3653 7.05966L11.3248 7.05583L11.2842 7.05237L11.2437 7.04933L11.203 7.04671L11.1626 7.04447L11.1222 7.04264L11.0815 7.04119L11.0411 7.04016L11.0007 7.03956L10.9604 7.03932L10.9328 7.03942L10.9537 8.80454L10.9662 8.80459L10.9894 8.80491L11.0126 8.80547L11.0359 8.80622L11.0592 8.8073L11.0825 8.80856L11.1058 8.81006L11.1292 8.81183L11.1526 8.81384L11.176 8.81609L11.1994 8.81857L11.2229 8.82128L11.2463 8.82427L11.2698 8.82749L11.2932 8.83095L11.3167 8.83469L11.3402 8.83867L11.3636 8.84288L11.3871 8.84737L11.4105 8.85204L11.4339 8.85704L11.4573 8.86223L11.4808 8.8677L11.5041 8.87341L11.5275 8.87934L11.5508 8.88556L11.5741 8.89201L11.5974 8.8987L11.6206 8.90567L11.6438 8.91287L11.6669 8.92035L11.6901 8.92806L11.7131 8.93601L11.7362 8.94419L11.7591 8.95265L11.782 8.96135L11.8049 8.97028L11.8277 8.97949L11.8504 8.98893L11.8731 8.99861L11.8957 9.00857L11.9183 9.01876L11.9408 9.02919L11.9632 9.03989L11.9855 9.05079L12.0077 9.06196L12.0298 9.07342L12.0519 9.08506L12.0739 9.09698L12.0958 9.10914L12.1175 9.12153L12.1392 9.13415L12.1608 9.14701L12.1823 9.16014L12.2037 9.17352L12.2249 9.18712L12.2461 9.20091L12.2671 9.21498L12.288 9.22934L12.3089 9.24388L12.3295 9.25865L12.3501 9.27366L12.3705 9.2889L12.3908 9.30438L12.411 9.32009L12.431 9.33603L12.4509 9.35221L12.4706 9.36857L12.4903 9.38521L12.5097 9.40205L12.529 9.41911L12.5482 9.43641L12.5672 9.45394L12.586 9.47166L12.6047 9.48961L12.6232 9.5078L12.6415 9.52617L12.6597 9.54478L12.6778 9.56358L12.6956 9.58261L12.7133 9.60187L12.7308 9.62132L12.7481 9.64095L12.7652 9.66082L12.7821 9.68088L12.7989 9.70113L12.8155 9.7216L12.8318 9.74227L12.848 9.76312L12.864 9.78421L12.8798 9.80543L12.8954 9.82689L12.9107 9.84849L12.9259 9.87033L12.9409 9.89235L12.9556 9.91455L12.9701 9.9369L12.9845 9.95949L12.9986 9.98221L13.0124 10.0051L13.0261 10.0282L13.0395 10.0514L13.0527 10.0749L13.0657 10.0985L13.0785 10.1222L13.091 10.1462L13.1032 10.1702L13.1153 10.1945L13.1271 10.2189L13.1386 10.2435L13.1499 10.2681L13.161 10.293L13.1719 10.318L13.1824 10.3432L13.1928 10.3685L13.2028 10.3939L13.2126 10.4195L13.2222 10.4452L13.2315 10.4711L13.2406 10.4971L13.2493 10.5231L13.2578 10.5494L13.2661 10.5757L13.2741 10.6022L13.2818 10.6288L13.2892 10.6555L13.2964 10.6823L13.3033 10.7093L13.3099 10.7363L13.3163 10.7635L13.3224 10.7907L13.3282 10.8181L13.3337 10.8456L13.3389 10.873L13.3438 10.9007L13.3485 10.9284L13.3529 10.9562L13.357 10.9841L13.3608 11.0121L13.3643 11.0401L13.3675 11.0683L13.3704 11.0965L13.3731 11.1247L13.3754 11.153L13.3774 11.1815L13.3792 11.2099L13.3806 11.2384L13.3817 11.267L13.3826 11.2956L13.3831 11.3243L13.3834 11.353L13.3833 11.3817L13.383 11.4105L13.3824 11.4393L13.3814 11.4682L13.3801 11.4971L13.3785 11.526L13.3767 11.5549L13.3745 11.5838L13.3719 11.6128L13.3691 11.6418L13.366 11.6708L13.3626 11.6998L13.3588 11.7288L13.3548 11.7578L13.3505 11.7868L13.3458 11.8158L13.3408 11.8448L13.3355 11.8738L13.3299 11.9028L13.324 11.9317L13.3177 11.9607L13.3112 11.9896L13.3044 12.0184L13.2972 12.0473L13.2897 12.0761L13.2819 12.1049L13.2738 12.1337L13.2654 12.1623L13.2566 12.191L13.2476 12.2196L13.2383 12.2481L13.2286 12.2766L13.2186 12.305L13.2083 12.3334L13.1977 12.3617L13.1868 12.3899L13.1756 12.4181L13.164 12.4461L13.1522 12.4742L13.14 12.5021L13.1275 12.5299L13.1148 12.5577L13.1017 12.5853L13.0883 12.6129L13.0746 12.6403L13.0606 12.6677L13.0463 12.6949L13.0317 12.722L13.0167 12.7491L13.0015 12.776L12.986 12.8028L12.9702 12.8295L12.9541 12.856L12.9376 12.8825L12.9209 12.9087L12.9039 12.9349L12.8866 12.9609L12.869 12.9868L12.8511 13.0125L12.8329 13.0381L12.8144 13.0635L12.7956 13.0888L12.7766 13.1139L12.7572 13.1389L12.7376 13.1637L12.7177 13.1884L12.6975 13.2128L12.677 13.2371L12.6562 13.2612L12.6351 13.2852L12.6138 13.3089L12.5922 13.3325L12.5703 13.3559L12.5482 13.3791L12.5258 13.4022L12.5031 13.425L12.4802 13.4476L12.457 13.47L12.4334 13.4922L12.4097 13.5142L12.3857 13.536L12.3615 13.5576L12.337 13.5789L12.3122 13.6001L12.2872 13.621L12.2619 13.6417L12.2363 13.6622L12.2106 13.6824L12.1846 13.7024L12.1584 13.7221L12.1318 13.7417L12.1051 13.7609L12.0782 13.78L12.051 13.7988L12.0236 13.8173L11.9959 13.8357L11.9681 13.8537L11.94 13.8715L11.9116 13.889L11.8831 13.9063L11.8544 13.9232L11.8254 13.94L11.7963 13.9564L11.7668 13.9726L11.7373 13.9885L11.7075 14.0042L11.6775 14.0195L11.6473 14.0346L11.617 14.0494L11.5864 14.0639L11.5557 14.0781L11.5248 14.0921L11.4936 14.1057L11.4623 14.119L11.4309 14.1321L11.3992 14.1448L11.3674 14.1572L11.3354 14.1694L11.3032 14.1812L11.2709 14.1928L11.2385 14.204L11.2059 14.2149L11.1731 14.2255L11.1402 14.2357L11.1071 14.2457L11.0739 14.2554L11.0405 14.2647L11.0071 14.2737L10.9734 14.2823L10.9397 14.2907L10.9058 14.2987L10.8718 14.3064L10.8377 14.3138L10.8034 14.3208L10.7691 14.3275L10.7346 14.3339L10.7001 14.3399L10.6654 14.3456L10.6306 14.3509L10.5958 14.3559L10.5608 14.3606L10.5258 14.3649L10.4907 14.3689L10.4555 14.3725L10.4202 14.3758L10.3848 14.3787L10.3494 14.3814L10.3138 14.3836L10.2783 14.3855L10.2427 14.387L10.207 14.3882L10.1712 14.389L10.1355 14.3894L10.0997 14.3896L10.0638 14.3894L10.0279 14.3887L9.99195 14.3878L9.956 14.3865L9.92 14.3848L9.88395 14.3827L9.8479 14.3803L9.81186 14.3776L9.77581 14.3744L9.73972 14.3709L9.70367 14.3671L9.66757 14.3628L9.63153 14.3583L9.59544 14.3533L9.55939 14.348L9.52334 14.3423L9.48734 14.3363L9.45134 14.3299L9.41539 14.3231L9.37943 14.316L9.34353 14.3085L9.30767 14.3006L9.27186 14.2923L9.23609 14.2837L9.20032 14.2748L9.16465 14.2655L9.12907 14.2557L9.09349 14.2457L9.05805 14.2353L9.02261 14.2245L8.98727 14.2133L8.95202 14.2018L8.91681 14.1899L8.88175 14.1777L8.84673 14.165L8.8118 14.152L8.77702 14.1387L8.74228 14.125L8.70768 14.1109L8.67318 14.0965L8.63882 14.0818L8.60455 14.0666L8.57037 14.0511L8.53638 14.0353L8.50244 14.0191L8.46868 14.0025L8.43507 13.9856L8.40159 13.9683L8.36826 13.9507L8.33506 13.9328L8.30201 13.9144L8.26914 13.8958L8.23637 13.8768L8.20382 13.8574L8.17142 13.8377L8.13921 13.8177L8.10714 13.7973L8.07525 13.7766L8.04355 13.7555L8.01204 13.7341L7.98076 13.7123L7.94963 13.6903L7.91868 13.6679L7.88796 13.6451L7.85743 13.622L7.82713 13.5987L7.79702 13.5749L7.76715 13.5509L7.73746 13.5265L7.70801 13.5018L7.67879 13.4768L7.6498 13.4515L7.62105 13.4259L7.59253 13.3999L7.56424 13.3736L7.53619 13.3471L7.50842 13.3202L7.48083 13.293L7.45358 13.2655L7.42655 13.2378L7.39976 13.2097L7.37325 13.1813L7.34702 13.1526L7.32108 13.1237L7.29536 13.0945L7.26998 13.0649L7.24482 13.0351L7.21995 13.005L7.1954 12.9746L7.17114 12.944L7.14715 12.9131L7.12345 12.8819L7.10007 12.8505L7.07702 12.8188L7.05426 12.7868L7.03177 12.7545L7.00961 12.722L6.98777 12.6893L6.96627 12.6563L6.94509 12.6231L6.92419 12.5896L6.90366 12.5559L6.88342 12.5219L6.86355 12.4877L6.84401 12.4533L6.82479 12.4186L6.8059 12.3837L6.78739 12.3486L6.7692 12.3133L6.75134 12.2777L6.73386 12.242L6.71674 12.206L6.69996 12.1699L6.68355 12.1335L6.66751 12.0969L6.6518 12.0602L6.63647 12.0232L6.62151 11.9861L6.60692 11.9487L6.59271 11.9112L6.57892 11.8735L6.56545 11.8356L6.55236 11.7976L6.53964 11.7594L6.52735 11.7211L6.51542 11.6825L6.50388 11.6439L6.4927 11.605L6.48195 11.566L6.47162 11.5269L6.46161 11.4876L6.45207 11.4482L6.44291 11.4087L6.43412 11.369L6.42575 11.3292L6.4178 11.2893L6.41023 11.2493L6.40308 11.2091L6.39634 11.1688L6.39003 11.1285L6.38409 11.088L6.37858 11.0475L6.37353 11.0068L6.36885 10.9661L6.3646 10.9252L6.36076 10.8843L6.35735 10.8433L6.35436 10.8023L6.35179 10.7611L6.34964 10.7199L6.34791 10.6787L6.3466 10.6374L6.34576 10.596L6.34534 10.5546L6.34529 10.5131L6.34571 10.4716L6.3466 10.4301L6.34786 10.3885L6.34959 10.3469L6.35174 10.3053L6.35431 10.2637L6.35731 10.2221L6.36076 10.1804L6.36465 10.1387L6.36895 10.0971L6.37372 10.0554L6.37891 10.0138L6.38452 9.97215L6.39059 9.93054L6.39709 9.88893L6.40406 9.84737L6.4114 9.80581L6.41921 9.76429L6.42748 9.72282L6.43618 9.6814L6.44529 9.64002L6.45483 9.59869L6.46484 9.55745L6.47526 9.51622L6.48616 9.47507L6.49747 9.43402L6.50921 9.39302L6.52136 9.35207L6.53399 9.31125L6.54703 9.27048L6.56049 9.22981L6.57443 9.18927L6.58878 9.14878L6.60355 9.10843L6.61875 9.06818L6.63441 9.02807L6.65049 8.98805L6.667 8.94812L6.68392 8.90838L6.70127 8.86873L6.71908 8.82922L6.73727 8.78986L6.75592 8.75063L6.77495 8.71159L6.79445 8.67265L6.81432 8.63389L6.83466 8.59532L6.85537 8.55689L6.87655 8.51864L6.8981 8.48054L6.92007 8.44262L6.94247 8.40494L6.96528 8.3674L6.98847 8.33004L7.01213 8.29292L7.03616 8.25594L7.06057 8.21919L7.08539 8.18267L7.11064 8.14635L7.13626 8.11025L7.1623 8.07439L7.18872 8.03872L7.21551 8.00328L7.24272 7.96812L7.2703 7.93315L7.29831 7.89846L7.32669 7.86396L7.35539 7.82978L7.38452 7.79579L7.41402 7.76208L7.4439 7.72865L7.47415 7.69546L7.50477 7.66259L7.53577 7.62996L7.56714 7.5976L7.59884 7.56553L7.63091 7.53374L7.66336 7.50223L7.69613 7.47104L7.72928 7.44014L7.76275 7.40952L7.79656 7.37922L7.83073 7.3492L7.86528 7.31956L7.90012 7.29015L7.93532 7.26112L7.97081 7.23241L8.00667 7.20399L8.04281 7.17594L8.07932 7.14821L8.11612 7.12081L8.15324 7.09374L8.19069 7.06705L8.22842 7.04068L8.26647 7.01464L8.30486 6.98897L8.34348 6.96368L8.38242 6.93876L8.42169 6.91416L8.4612 6.88995L8.50104 6.8661L8.5411 6.84263L8.5815 6.81954L8.62213 6.79681L8.66304 6.77447L8.70423 6.75254L8.74565 6.73099L8.78735 6.70981L8.82929 6.68905L8.87151 6.66866L8.91396 6.6487L8.95665 6.62911L8.99956 6.60994L9.04272 6.59119L9.08615 6.57282L9.12977 6.55487L9.17358 6.53738L9.21767 6.52027L9.26194 6.50358L9.30641 6.48731L9.3511 6.47151L9.39603 6.45608L9.4411 6.44112L9.48641 6.42658L9.53185 6.41246L9.57753 6.3988L9.62335 6.38557L9.66935 6.37281L9.71554 6.36047L9.76188 6.34854L9.8084 6.33709L9.85506 6.3261L9.9019 6.31558L9.94884 6.30548L9.99597 6.29585L10.0432 6.28669L10.0669 6.28229ZM10.6475 9.67672L10.1086 9.80548L10.077 7.1361L10.0516 7.14181L10.0134 7.15083L9.97516 7.16023L9.93725 7.16995L9.89938 7.18005L9.86174 7.19052L9.82411 7.20142L9.78684 7.21254L9.74949 7.22414L9.7126 7.23597L9.67562 7.24826L9.63887 7.26089L9.60231 7.27384L9.56589 7.28712L9.52979 7.30072L9.49375 7.31475L9.45789 7.32905L9.42226 7.34369L9.38668 7.35874L9.35157 7.37398L9.31646 7.38969L9.28167 7.40564L9.24694 7.422L9.21253 7.4386L9.17821 7.45557L9.14427 7.47282L9.11046 7.4904L9.07689 7.5083L9.04356 7.52649L9.01041 7.54501L8.9775 7.56385L8.94496 7.58292L8.91237 7.60242L8.8802 7.6221L8.84832 7.64211L8.81662 7.6624L8.78511 7.68302L8.75392 7.70392L8.72297 7.7251L8.69226 7.74651L8.66187 7.76821L8.63162 7.79023L8.60169 7.81253L8.57205 7.83506L8.54265 7.85788L8.51357 7.88088L8.48477 7.90421L8.45615 7.92782L8.42782 7.95171L8.39986 7.97574L8.37214 8.0001L8.34469 8.02465L8.31753 8.04947L8.29065 8.07458L8.26409 8.09987L8.23781 8.12535L8.21177 8.15116L8.18611 8.17711L8.16072 8.20334L8.13566 8.22971L8.11079 8.25645L8.08633 8.28324L8.06216 8.31031L8.03827 8.33761L8.01475 8.36501L7.99147 8.39274L7.96861 8.42051L7.94593 8.44865L7.92368 8.47684L7.90166 8.50532L7.88001 8.53398L7.85869 8.56273L7.83765 8.59167L7.81699 8.6208L7.7966 8.65016L7.77655 8.67961L7.75686 8.7093L7.73751 8.73904L7.71848 8.76896L7.69973 8.79912L7.6814 8.82932L7.66331 8.8598L7.64564 8.89024L7.62825 8.92095L7.61118 8.95177L7.59454 8.98267L7.57817 9.01371L7.56218 9.0449L7.54647 9.07627L7.53119 9.10759L7.51618 9.1392L7.50154 9.1708L7.48728 9.20255L7.47331 9.23439L7.4597 9.26637L7.44647 9.29835L7.43356 9.33051L7.42104 9.36273L7.40879 9.39503L7.39696 9.42734L7.38546 9.45983L7.37428 9.49237L7.36348 9.52496L7.35301 9.55759L7.34291 9.59037L7.33314 9.62314L7.32379 9.65592L7.31472 9.68883L7.30598 9.72179L7.29765 9.75475L7.28966 9.78776L7.28199 9.82081L7.2747 9.85392L7.26778 9.88706L7.26119 9.92017L7.25492 9.95331L7.24903 9.98655L7.24351 10.0197L7.23832 10.0529L7.23346 10.0862L7.22897 10.1193L7.22486 10.1526L7.22107 10.1858L7.21761 10.219L7.21453 10.2523L7.21177 10.2854L7.20938 10.3186L7.20733 10.3518L7.2056 10.3849L7.20424 10.418L7.20321 10.4511L7.20256 10.4842L7.20218 10.5172L7.20223 10.5502L7.20256 10.5831L7.20326 10.616L7.20429 10.6488L7.20564 10.6816L7.20733 10.7143L7.20938 10.7469L7.21177 10.7795L7.21448 10.8121L7.21752 10.8445L7.22088 10.877L7.22458 10.9092L7.2286 10.9415L7.23295 10.9736L7.23767 11.0057L7.24267 11.0376L7.248 11.0695L7.25366 11.1013L7.25964 11.133L7.26595 11.1646L7.27255 11.196L7.27951 11.2274L7.28676 11.2587L7.29433 11.2898L7.30219 11.3208L7.31042 11.3518L7.31888 11.3825L7.32767 11.4132L7.33679 11.4437L7.34618 11.4741L7.35591 11.5044L7.36591 11.5345L7.37625 11.5645L7.38686 11.5944L7.39775 11.624L7.40893 11.6536L7.42043 11.683L7.43221 11.7122L7.44427 11.7413L7.45657 11.7702L7.46924 11.799L7.48214 11.8276L7.49533 11.856L7.50879 11.8843L7.52249 11.9123L7.53656 11.9403L7.55078 11.968L7.56532 11.9955L7.58014 12.0229L7.59524 12.0501L7.61057 12.0771L7.62614 12.104L7.64199 12.1305L7.65812 12.157L7.67444 12.1832L7.69103 12.2092L7.70791 12.2351L7.72498 12.2607L7.74232 12.2862L7.75986 12.3113L7.77767 12.3363L7.79572 12.3611L7.81395 12.3857L7.83251 12.4101L7.85121 12.4342L7.87015 12.4581L7.88932 12.4818L7.90872 12.5053L7.92826 12.5285L7.94813 12.5515L7.96814 12.5743L7.98834 12.5969L8.00886 12.6192L8.02944 12.6413L8.05029 12.6632L8.07133 12.6848L8.0925 12.7061L8.11397 12.7273L8.13556 12.7482L8.15735 12.7688L8.17933 12.7892L8.20149 12.8094L8.22384 12.8293L8.24632 12.8489L8.269 12.8683L8.29181 12.8875L8.31482 12.9064L8.33801 12.925L8.36138 12.9434L8.38481 12.9615L8.40846 12.9794L8.43226 12.997L8.4562 13.0143L8.48028 13.0314L8.5045 13.0482L8.52885 13.0648L8.55335 13.0811L8.57794 13.097L8.60268 13.1128L8.62764 13.1283L8.65261 13.1435L8.67772 13.1584L8.70301 13.1731L8.7283 13.1875L8.75374 13.2016L8.7794 13.2155L8.80507 13.229L8.83083 13.2423L8.85669 13.2553L8.88273 13.2681L8.90872 13.2805L8.93495 13.2927L8.96118 13.3046L8.98746 13.3162L9.01392 13.3276L9.04043 13.3387L9.06694 13.3495L9.09359 13.36L9.12028 13.3702L9.14712 13.3801L9.17386 13.3898L9.20084 13.3992L9.22772 13.4083L9.2547 13.4171L9.28177 13.4257L9.30888 13.434L9.336 13.4419L9.36316 13.4496L9.39042 13.457L9.41768 13.4642L9.44494 13.471L9.47224 13.4776L9.49954 13.4838L9.52689 13.4898L9.55429 13.4956L9.58169 13.501L9.60909 13.5062L9.63648 13.511L9.66393 13.5157L9.69137 13.52L9.71882 13.524L9.74617 13.5278L9.77361 13.5312L9.80101 13.5345L9.82845 13.5374L9.85585 13.54L9.88325 13.5424L9.9106 13.5445L9.9379 13.5463L9.96525 13.5479L9.99251 13.5492L10.0197 13.5502L10.047 13.5509L10.0741 13.5513L10.1013 13.5515L10.1284 13.5514L10.1554 13.5511L10.1825 13.5505L10.2094 13.5496L10.2363 13.5485L10.2631 13.547L10.29 13.5453L10.3167 13.5434L10.3433 13.5412L10.3699 13.5387L10.3965 13.536L10.4229 13.5329L10.4492 13.5297L10.4756 13.5262L10.5018 13.5224L10.5279 13.5184L10.554 13.5141L10.58 13.5096L10.6058 13.5048L10.6316 13.4998L10.6573 13.4945L10.6829 13.489L10.7083 13.4832L10.7337 13.4772L10.759 13.4709L10.7842 13.4645L10.8092 13.4577L10.8342 13.4508L10.8591 13.4435L10.8838 13.4361L10.9083 13.4284L10.9329 13.4205L10.9572 13.4124L10.9814 13.404L11.0055 13.3954L11.0294 13.3866L11.0533 13.3775L11.077 13.3683L11.1005 13.3588L11.1239 13.3491L11.1472 13.3391L11.1704 13.329L11.1933 13.3187L11.2162 13.3081L11.2389 13.2973L11.2614 13.2864L11.2838 13.2752L11.306 13.2638L11.3281 13.2522L11.35 13.2404L11.3718 13.2284L11.3933 13.2163L11.4148 13.2039L11.4361 13.1913L11.4571 13.1785L11.478 13.1656L11.4988 13.1525L11.5193 13.1392L11.5398 13.1257L11.56 13.112L11.58 13.0981L11.5999 13.0841L11.6195 13.0699L11.639 13.0555L11.6583 13.041L11.6775 13.0263L11.6964 13.0114L11.7152 12.9963L11.7337 12.9812L11.7521 12.9659L11.7702 12.9503L11.7882 12.9347L11.806 12.9189L11.8236 12.9029L11.8409 12.8868L11.8581 12.8706L11.8751 12.8542L11.8919 12.8376L11.9085 12.821L11.9248 12.8042L11.941 12.7872L11.9569 12.7702L11.9727 12.7529L11.9882 12.7357L12.0036 12.7182L12.0187 12.7006L12.0335 12.683L12.0483 12.6651L12.0627 12.6473L12.077 12.6292L12.0911 12.6111L12.1049 12.5929L12.1185 12.5745L12.1319 12.5562L12.1451 12.5376L12.1581 12.5189L12.1708 12.5002L12.1833 12.4814L12.1957 12.4625L12.2077 12.4435L12.2196 12.4244L12.2312 12.4052L12.2426 12.386L12.2538 12.3667L12.2648 12.3473L12.2755 12.3278L12.286 12.3082L12.2963 12.2887L12.3064 12.269L12.3162 12.2493L12.3259 12.2295L12.3353 12.2096L12.3444 12.1897L12.3534 12.1697L12.3621 12.1498L12.3706 12.1297L12.3788 12.1096L12.3869 12.0894L12.3946 12.0693L12.4023 12.0489L12.4096 12.0289L12.4167 12.0085L12.4236 11.9881L12.4303 11.9678L12.4367 11.9474L12.4429 11.9271L12.449 11.9065L12.4547 11.8862L12.4603 11.8656L12.4656 11.8453L12.4707 11.8248L12.4755 11.8042L12.4802 11.7837L12.4846 11.7634L12.4888 11.7427L12.4927 11.7223L12.4965 11.7017L12.5 11.6813L12.5033 11.6608L12.5064 11.6403L12.5092 11.6197L12.5119 11.5993L12.5143 11.5789L12.5165 11.5585L12.5184 11.538L12.5202 11.5177L12.5218 11.4973L12.5231 11.477L12.5242 11.4567L12.5251 11.4364L12.5257 11.4163L12.5262 11.396L12.5265 11.3757L12.5265 11.3557L12.5263 11.3356L12.526 11.3156L12.5254 11.2956L12.5246 11.2756L12.5235 11.2559L12.5223 11.2358L12.5209 11.2162L12.5193 11.1965L12.5175 11.1767L12.5154 11.1571L12.5132 11.1377L12.5107 11.118L12.5081 11.0988L12.5053 11.0794L12.5023 11.0602L12.499 11.0409L12.4956 11.0218L12.492 11.0028L12.4882 10.9838L12.4842 10.9649L12.48 10.9461L12.4756 10.9274L12.471 10.9088L12.4663 10.8903L12.4613 10.8717L12.4563 10.8535L12.4509 10.835L12.4455 10.8169L12.4398 10.7988L12.434 10.7809L12.4279 10.763L12.4217 10.7451L12.4154 10.7275L12.4089 10.71L12.4021 10.6924L12.3953 10.6751L12.3882 10.6577L12.381 10.6408L12.3736 10.6236L12.3661 10.6067L12.3584 10.59L12.3506 10.5733L12.3426 10.5567L12.3344 10.5403L12.3261 10.5239L12.3176 10.5077L12.3089 10.4916L12.3002 10.4757L12.2913 10.4598L12.2822 10.4441L12.273 10.4286L12.2636 10.4131L12.2541 10.3977L12.2445 10.3826L12.2347 10.3676L12.2248 10.3527L12.2147 10.3379L12.2046 10.3233L12.1943 10.3087L12.1838 10.2944L12.1733 10.2802L12.1626 10.2661L12.1518 10.2522L12.1408 10.2383L12.1298 10.2247L12.1186 10.2112L12.1073 10.1978L12.0959 10.1846L12.0845 10.1716L12.0728 10.1587L12.0611 10.1459L12.0493 10.1332L12.0374 10.1208L12.0253 10.1085L12.0131 10.0963L12.0009 10.0843L11.9886 10.0725L11.9762 10.0608L11.9636 10.0492L11.9511 10.0378L11.9383 10.0266L11.9256 10.0155L11.9127 10.0046L11.8997 9.99389L11.8867 9.98328L11.8736 9.97286L11.8604 9.96257L11.8471 9.95243L11.8338 9.94251L11.8204 9.93269L11.8069 9.92306L11.7934 9.91362L11.7797 9.90427L11.7661 9.89515L11.7523 9.88618L11.7385 9.87734L11.7247 9.86869L11.7107 9.86018L11.6968 9.85186L11.6828 9.84372L11.6688 9.83573L11.6546 9.82787L11.6405 9.82021L11.6263 9.81268L11.612 9.80534L11.5978 9.79819L11.5834 9.79113L11.5691 9.7843L11.5547 9.77766L11.5403 9.77112L11.5259 9.76476L11.5113 9.75854L11.4969 9.75255L11.4823 9.74671L11.4678 9.74101L11.4532 9.73549L11.4386 9.73011L11.424 9.72492L11.4094 9.71987L11.3948 9.71496L11.3802 9.71029L11.3655 9.70571L11.3508 9.70131L11.3362 9.69711L11.3215 9.69304L11.3069 9.68916L11.2922 9.68542L11.2775 9.68182L11.2628 9.6784L11.2482 9.67513L11.2335 9.67204L11.2189 9.6691L11.2043 9.6663L11.1897 9.66368L11.175 9.6612L11.1605 9.65891L11.1459 9.65676L11.1314 9.65475L11.1168 9.65288L11.1023 9.65119L11.0879 9.64965L11.0734 9.64829L11.059 9.64703L11.0446 9.64596L11.0303 9.64502L11.0159 9.64423L11.0016 9.64362L10.9875 9.64315L10.9732 9.64278L10.959 9.64259L10.9449 9.64254L10.9308 9.64268L10.9167 9.64292L10.9028 9.64329L10.8888 9.64385L10.8749 9.64451L10.861 9.64535L10.8473 9.64628L10.8335 9.64736L10.8198 9.64862L10.8062 9.64998L10.7926 9.65147L10.7791 9.65311L10.7656 9.65489L10.7523 9.6568L10.7389 9.65886L10.7256 9.66101L10.7124 9.6633L10.6994 9.66573L10.6862 9.66831L10.6733 9.67097L10.6603 9.67377L10.6475 9.67672Z" fill="#D1D1D1"/>
</g>
<defs>
<clipPath id="clip0_43_1806">
<rect width="72" height="20.5714" fill="white" transform="translate(0.0405273)"/>
</clipPath>
</defs>
</svg>
