<svg width="73" height="18" viewBox="0 0 73 18" fill="none" xmlns="http://www.w3.org/2000/svg">
<g clip-path="url(#clip0_43_1846)">
<path d="M21.7087 12.5051H26.8007V10.9714H23.5185V5.19434H21.7087V12.5051Z" fill="#D1D1D1"/>
<path d="M29.8175 11.4827C29.0915 11.4827 28.7132 10.8488 28.7132 9.89789C28.7132 8.94698 29.0915 8.30281 29.8175 8.30281C30.5435 8.30281 30.932 8.94698 30.932 9.89789C30.932 10.8488 30.5435 11.4827 29.8175 11.4827ZM29.8277 12.6688C31.5148 12.6688 32.6191 11.4725 32.6191 9.89789C32.6191 8.32326 31.5148 7.12695 29.8277 7.12695C28.1509 7.12695 27.0261 8.32326 27.0261 9.89789C27.0261 11.4725 28.1509 12.6688 29.8277 12.6688Z" fill="#D1D1D1"/>
<path d="M35.5394 14.3155C36.3165 14.3155 37.0016 14.1417 37.4617 13.7327C37.8809 13.3543 38.157 12.7818 38.157 11.9944V7.27056H36.5619V7.83293H36.5414C36.2347 7.39326 35.7644 7.11719 35.0691 7.11719C33.7705 7.11719 32.8707 8.20102 32.8707 9.73475C32.8707 11.3401 33.9648 12.2194 35.1406 12.2194C35.7746 12.2194 36.1734 11.9638 36.4801 11.6161H36.521V12.1376C36.521 12.7715 36.2245 13.1396 35.519 13.1396C34.9668 13.1396 34.6908 12.9045 34.5987 12.6284H32.9832C33.1468 13.7224 34.0977 14.3155 35.5394 14.3155ZM35.5292 10.9822C34.9055 10.9822 34.4965 10.4709 34.4965 9.68363C34.4965 8.88609 34.9055 8.37484 35.5292 8.37484C36.2245 8.37484 36.5926 8.96789 36.5926 9.6734C36.5926 10.4096 36.2552 10.9822 35.5292 10.9822Z" fill="#D1D1D1"/>
<path d="M41.4366 11.4827C40.7107 11.4827 40.3324 10.8488 40.3324 9.89789C40.3324 8.94698 40.7107 8.30281 41.4366 8.30281C42.1626 8.30281 42.5512 8.94698 42.5512 9.89789C42.5512 10.8488 42.1626 11.4827 41.4366 11.4827ZM41.4469 12.6688C43.134 12.6688 44.2383 11.4725 44.2383 9.89789C44.2383 8.32326 43.134 7.12695 41.4469 7.12695C39.77 7.12695 38.6453 8.32326 38.6453 9.89789C38.6453 11.4725 39.77 12.6688 41.4469 12.6688Z" fill="#D1D1D1"/>
<path d="M44.7249 12.5051H46.3915V7.26998H44.7249V12.5051ZM44.7249 6.54402H46.3915V5.19434H44.7249V6.54402Z" fill="#D1D1D1"/>
<path d="M47.1149 14.2337H48.7815V11.9638H48.802C49.1292 12.4034 49.6097 12.6693 50.2846 12.6693C51.6547 12.6693 52.5647 11.5854 52.5647 9.88812C52.5647 8.3135 51.716 7.11719 50.3255 7.11719C49.6097 7.11719 49.0985 7.43416 48.7406 7.9045H48.7099V7.27056H47.1149V14.2337ZM49.8551 11.381C49.1394 11.381 48.7304 10.7981 48.7304 9.94947C48.7304 9.10081 49.0985 8.45664 49.8245 8.45664C50.5402 8.45664 50.8776 9.04969 50.8776 9.94947C50.8776 10.839 50.4891 11.381 49.8551 11.381Z" fill="#D1D1D1"/>
<path d="M55.2782 12.6693C56.6483 12.6693 57.6606 12.0762 57.6606 10.9311C57.6606 9.5916 56.5767 9.35643 55.6565 9.20306C54.9919 9.08036 54.3988 9.02924 54.3988 8.66114C54.3988 8.33395 54.7158 8.18057 55.1248 8.18057C55.5849 8.18057 55.9019 8.32372 55.9632 8.79406H57.497C57.4152 7.76135 56.6176 7.11719 55.135 7.11719C53.8978 7.11719 52.8753 7.68978 52.8753 8.79406C52.8753 10.021 53.8467 10.2664 54.7567 10.4198C55.452 10.5425 56.0859 10.5936 56.0859 11.064C56.0859 11.4014 55.769 11.5854 55.2679 11.5854C54.7158 11.5854 54.3682 11.3298 54.3068 10.8084H52.7322C52.7833 11.9638 53.7444 12.6693 55.2782 12.6693Z" fill="#D1D1D1"/>
<path d="M59.9245 12.659C60.6504 12.659 61.1105 12.3727 61.4889 11.8615H61.5195V12.5056H63.1146V7.27051H61.448V10.1948C61.448 10.8185 61.1003 11.248 60.5277 11.248C59.996 11.248 59.7404 10.931 59.7404 10.3584V7.27051H58.084V10.7061C58.084 11.8717 58.7179 12.659 59.9245 12.659Z" fill="#D1D1D1"/>
<path d="M63.8394 12.5057H65.506V9.57115C65.506 8.94744 65.8128 8.50777 66.3342 8.50777C66.8352 8.50777 67.0704 8.83496 67.0704 9.39733V12.5057H68.7371V9.57115C68.7371 8.94744 69.0336 8.50777 69.5653 8.50777C70.0663 8.50777 70.3015 8.83496 70.3015 9.39733V12.5057H71.9681V9.10081C71.9681 7.92495 71.3751 7.11719 70.189 7.11719C69.5142 7.11719 68.9518 7.40348 68.5428 8.03742H68.5223C68.2565 7.47506 67.735 7.11719 67.05 7.11719C66.2933 7.11719 65.7923 7.47506 65.4651 8.01697H65.4344V7.27056H63.8394V12.5057Z" fill="#D1D1D1"/>
<path fill-rule="evenodd" clip-rule="evenodd" d="M8.85272 0.410156C13.6507 0.410156 17.5401 4.29964 17.5401 9.09756C17.5401 13.8955 13.6507 17.785 8.85272 17.785C4.05477 17.785 0.165283 13.8955 0.165283 9.09756C0.165283 4.29964 4.05477 0.410156 8.85272 0.410156ZM17.2067 9.09756C17.2067 4.48381 13.4665 0.743581 8.85272 0.743581C8.48054 0.743581 8.11411 0.767916 7.75479 0.815082C7.98693 0.794786 8.22185 0.784425 8.45924 0.784425C12.8679 0.784425 16.4419 4.35838 16.4419 8.76709C16.4419 13.1757 12.8679 16.7497 8.45924 16.7497C4.28539 16.7497 0.859718 13.5464 0.506607 9.46408C0.69843 13.9078 4.36171 17.4516 8.85272 17.4516C13.4665 17.4516 17.2067 13.7114 17.2067 9.09756ZM16.1084 8.76709C16.1084 4.54252 12.6838 1.11785 8.45924 1.11785C8.11624 1.11785 7.77848 1.14043 7.4474 1.18418C7.65126 1.16703 7.8575 1.15828 8.06579 1.15828C12.0853 1.15828 15.3437 4.41671 15.3437 8.43614C15.3437 12.4556 12.0853 15.714 8.06579 15.714C4.26529 15.714 1.14517 12.8009 0.816544 9.0858C0.983631 13.1625 4.34148 16.4163 8.45924 16.4163C12.6838 16.4163 16.1084 12.9916 16.1084 8.76709ZM8.06579 1.49171C11.9011 1.49171 15.0103 4.60084 15.0103 8.43614C15.0103 12.2714 11.9011 15.3806 8.06579 15.3806C4.31937 15.3806 1.26581 12.4138 1.12634 8.70148C1.42744 12.0522 4.24324 14.6783 7.67239 14.6783C11.3023 14.6783 14.2451 11.7356 14.2451 8.10562C14.2451 4.47563 11.3023 1.53296 7.67239 1.53296C7.4846 1.53296 7.29863 1.54084 7.11484 1.55628C7.42576 1.5137 7.7432 1.49171 8.06579 1.49171ZM13.9116 8.10562C13.9116 4.65981 11.1182 1.86639 7.67239 1.86639C7.38124 1.86639 7.09473 1.88633 6.81423 1.92492C6.96739 1.91293 7.12221 1.90683 7.27848 1.90683C10.5192 1.90683 13.1464 4.53395 13.1464 7.77472C13.1464 11.0154 10.5192 13.6426 7.27848 13.6426C4.22822 13.6426 1.72155 11.3152 1.43743 8.33939C1.56035 11.6769 4.30479 14.3449 7.67239 14.3449C11.1182 14.3449 13.9116 11.5515 13.9116 8.10562ZM7.27848 2.24025C10.3351 2.24025 12.8129 4.71813 12.8129 7.77472C12.8129 10.8313 10.3351 13.3092 7.27848 13.3092C4.2821 13.3092 1.84188 10.928 1.7469 7.95468C2.00343 10.5664 4.20595 12.6069 6.88504 12.6069C9.73658 12.6069 12.0482 10.2953 12.0482 7.44378C12.0482 4.59228 9.73658 2.28068 6.88504 2.28068C6.75429 2.28068 6.62464 2.28554 6.49632 2.29509C6.75186 2.25895 7.01297 2.24025 7.27848 2.24025ZM11.7147 7.44378C11.7147 4.77641 9.5524 2.61411 6.88504 2.61411C6.64156 2.61411 6.4023 2.63212 6.16849 2.6669C6.27521 2.65925 6.38295 2.65536 6.49164 2.65536C8.95365 2.65536 10.9495 4.65124 10.9495 7.11326C10.9495 9.57532 8.95365 11.5712 6.49164 11.5712C4.18456 11.5712 2.28682 9.81867 2.05705 7.57227C2.12517 10.1802 4.26066 12.2735 6.88504 12.2735C9.5524 12.2735 11.7147 10.1111 11.7147 7.44378ZM6.49164 2.98879C8.76952 2.98879 10.6161 4.83537 10.6161 7.11326C10.6161 9.39118 8.76952 11.2378 6.49164 11.2378C4.24271 11.2378 2.4142 9.43788 2.36802 7.20004C2.57577 9.07626 4.16657 10.5355 6.09819 10.5355C8.17098 10.5355 9.85131 8.85515 9.85131 6.78236C9.85131 4.70957 8.17098 3.02922 6.09819 3.02922C6.01891 3.02922 5.94022 3.03168 5.86217 3.03652C6.06739 3.00509 6.2776 2.98879 6.49164 2.98879ZM9.51789 6.78236C9.51789 4.8937 7.98685 3.36265 6.09819 3.36265C5.90852 3.36265 5.72247 3.37809 5.54119 3.40778C5.59521 3.40493 5.64958 3.40349 5.70432 3.40349C7.38784 3.40349 8.75265 4.76827 8.75265 6.45184C8.75265 8.1354 7.38784 9.50021 5.70432 9.50021C4.1476 9.50021 2.86343 8.3333 2.67875 6.82649C2.7024 8.69483 4.22427 10.2021 6.09819 10.2021C7.98685 10.2021 9.51789 8.67101 9.51789 6.78236ZM5.70432 3.73691C7.20371 3.73691 8.41923 4.95241 8.41923 6.45184C8.41923 7.95127 7.20371 9.16675 5.70432 9.16675C4.20489 9.16675 2.98938 7.95127 2.98938 6.45184C2.98938 6.44826 2.98939 6.44464 2.9894 6.44106C3.14551 7.58369 4.12537 8.46409 5.31088 8.46409C6.60496 8.46409 7.65403 7.41502 7.65403 6.12094C7.65403 4.82681 6.60496 3.77777 5.31088 3.77777C5.28161 3.77777 5.25247 3.7783 5.22345 3.77936C5.37951 3.75147 5.54021 3.73691 5.70432 3.73691ZM7.32057 6.12094C7.32057 5.01099 6.42083 4.11119 5.31088 4.11119C4.20093 4.11119 3.30114 5.01099 3.30114 6.12094C3.30114 7.23084 4.20093 8.13063 5.31088 8.13063C6.42083 8.13063 7.32057 7.23084 7.32057 6.12094Z" fill="#D1D1D1"/>
</g>
<defs>
<clipPath id="clip0_43_1846">
<rect width="72" height="17.8935" fill="white" transform="translate(0.0405273)"/>
</clipPath>
</defs>
</svg>
