<svg width="80" height="20" viewBox="0 0 80 20" fill="none" xmlns="http://www.w3.org/2000/svg">
<g clip-path="url(#clip0_43_1753)">
<path d="M0.494263 14.8327L0.494264 4.94434L5.34472 7.69111V12.1134L9.22511 14.3383L13.1055 12.1134V7.69111L17.956 4.94434V14.8327L9.22511 19.7768L0.494263 14.8327Z" fill="#D1D1D1"/>
<path fill-rule="evenodd" clip-rule="evenodd" d="M2.9195 6.31758L0.494263 4.94418L9.22511 0L17.956 4.94418L15.5307 6.31758V13.5965L9.22511 17.3046L2.91949 13.5965L2.9195 6.31758ZM15.268 6.46637L13.1055 7.69095V7.66347L9.22511 5.43858L5.34472 7.66347V7.69095L3.18223 6.46637V13.4444L9.22511 16.998L15.268 13.4444V6.46637Z" fill="#D1D1D1"/>
<path d="M22.6046 14.0513V5.74512H24.1412V12.6274H27.8664V14.0513H22.6046Z" fill="#D1D1D1"/>
<path d="M31.184 14.2168C30.6098 14.2168 30.0937 14.0982 29.6358 13.8608C29.1779 13.6235 28.817 13.2794 28.5532 12.8285C28.2893 12.3776 28.1573 11.8357 28.1573 11.2029V11.013C28.1573 10.3801 28.2893 9.83823 28.5532 9.38734C28.817 8.93644 29.1779 8.59234 29.6358 8.35502C30.0937 8.11766 30.6098 7.99902 31.184 7.99902C31.7584 7.99902 32.2744 8.11766 32.7323 8.35502C33.1902 8.59234 33.5511 8.93644 33.8149 9.38734C34.0788 9.83823 34.2108 10.3801 34.2108 11.013V11.2029C34.2108 11.8357 34.0788 12.3776 33.8149 12.8285C33.5511 13.2794 33.1902 13.6235 32.7323 13.8608C32.2744 14.0982 31.7584 14.2168 31.184 14.2168ZM31.184 12.8878C31.6342 12.8878 32.0067 12.7415 32.3016 12.4488C32.5965 12.1482 32.7439 11.721 32.7439 11.1672V11.0486C32.7439 10.4949 32.5965 10.0716 32.3016 9.77892C32.0145 9.47834 31.6419 9.32802 31.184 9.32802C30.7339 9.32802 30.3614 9.47834 30.0665 9.77892C29.7716 10.0716 29.6242 10.4949 29.6242 11.0486V11.1672C29.6242 11.721 29.7716 12.1482 30.0665 12.4488C30.3614 12.7415 30.7339 12.8878 31.184 12.8878Z" fill="#D1D1D1"/>
<path d="M34.7615 11.1317V10.9418C34.7615 10.3248 34.8817 9.79871 35.1223 9.3636C35.3629 8.9206 35.6811 8.58439 36.0769 8.35502C36.4805 8.11766 36.9189 7.99902 37.3923 7.99902C37.9201 7.99902 38.3198 8.09397 38.5914 8.28381C38.863 8.47365 39.0609 8.67144 39.1851 8.87713H39.3946V8.16513H40.8381V15.0949C40.8381 15.4983 40.7217 15.8187 40.4889 16.0561C40.2561 16.3013 39.9456 16.4239 39.5576 16.4239H35.6927V15.1187H39.0454C39.2627 15.1187 39.3714 15 39.3714 14.7627V13.2319H39.1618C39.0842 13.3585 38.9755 13.489 38.8359 13.6235C38.6961 13.7501 38.5099 13.8569 38.2771 13.9439C38.0443 14.0309 37.7493 14.0744 37.3923 14.0744C36.9189 14.0744 36.4805 13.9597 36.0769 13.7303C35.6811 13.493 35.3629 13.1568 35.1223 12.7217C34.8817 12.2787 34.7615 11.7487 34.7615 11.1317ZM37.8114 12.7692C38.2615 12.7692 38.6379 12.6228 38.9406 12.3301C39.2433 12.0374 39.3946 11.6261 39.3946 11.0961V10.9774C39.3946 10.4394 39.2433 10.0281 38.9406 9.74334C38.6457 9.45066 38.2693 9.30429 37.8114 9.30429C37.3613 9.30429 36.9849 9.45066 36.6823 9.74334C36.3796 10.0281 36.2282 10.4394 36.2282 10.9774V11.0961C36.2282 11.6261 36.3796 12.0374 36.6823 12.3301C36.9849 12.6228 37.3613 12.7692 37.8114 12.7692Z" fill="#D1D1D1"/>
<path d="M44.6878 14.2168C44.1135 14.2168 43.5974 14.0982 43.1395 13.8608C42.6816 13.6235 42.3208 13.2794 42.0569 12.8285C41.7931 12.3776 41.6611 11.8357 41.6611 11.2029V11.013C41.6611 10.3801 41.7931 9.83823 42.0569 9.38734C42.3208 8.93644 42.6816 8.59234 43.1395 8.35502C43.5974 8.11766 44.1135 7.99902 44.6878 7.99902C45.2621 7.99902 45.7782 8.11766 46.2361 8.35502C46.6939 8.59234 47.0548 8.93644 47.3187 9.38734C47.5826 9.83823 47.7145 10.3801 47.7145 11.013V11.2029C47.7145 11.8357 47.5826 12.3776 47.3187 12.8285C47.0548 13.2794 46.6939 13.6235 46.2361 13.8608C45.7782 14.0982 45.2621 14.2168 44.6878 14.2168ZM44.6878 12.8878C45.1379 12.8878 45.5104 12.7415 45.8053 12.4488C46.1003 12.1482 46.2477 11.721 46.2477 11.1672V11.0486C46.2477 10.4949 46.1003 10.0716 45.8053 9.77892C45.5182 9.47834 45.1457 9.32802 44.6878 9.32802C44.2377 9.32802 43.8652 9.47834 43.5702 9.77892C43.2754 10.0716 43.1279 10.4949 43.1279 11.0486V11.1672C43.1279 11.721 43.2754 12.1482 43.5702 12.4488C43.8652 12.7415 44.2377 12.8878 44.6878 12.8878Z" fill="#D1D1D1"/>
<path d="M48.5445 14.0515V8.16589H50.0113V14.0515H48.5445ZM49.2778 7.47768C49.014 7.47768 48.7889 7.39068 48.6027 7.21663C48.4242 7.04258 48.335 6.81315 48.335 6.52842C48.335 6.24363 48.4242 6.01421 48.6027 5.84015C48.7889 5.66615 49.014 5.5791 49.2778 5.5791C49.5495 5.5791 49.7746 5.66615 49.9531 5.84015C50.1316 6.01421 50.2208 6.24363 50.2208 6.52842C50.2208 6.81315 50.1316 7.04258 49.9531 7.21663C49.7746 7.39068 49.5495 7.47768 49.2778 7.47768Z" fill="#D1D1D1"/>
<path d="M51.1128 16.4239V8.16513H52.5564V8.87713H52.766C52.8977 8.64771 53.1032 8.44597 53.383 8.27192C53.6624 8.08997 54.062 7.99902 54.582 7.99902C55.0477 7.99902 55.4783 8.11766 55.8739 8.35502C56.2699 8.58439 56.588 8.92455 56.8286 9.3755C57.0692 9.82639 57.1895 10.3722 57.1895 11.013V11.2029C57.1895 11.8436 57.0692 12.3894 56.8286 12.8403C56.588 13.2913 56.2699 13.6354 55.8739 13.8727C55.4783 14.1021 55.0477 14.2168 54.582 14.2168C54.2324 14.2168 53.9376 14.1733 53.697 14.0863C53.4641 14.0072 53.2741 13.9043 53.1269 13.7778C52.987 13.6433 52.8744 13.5088 52.7892 13.3743H52.5796V16.4239H51.1128ZM54.1395 12.9116C54.5975 12.9116 54.9739 12.7652 55.2687 12.4725C55.5713 12.1719 55.7226 11.7368 55.7226 11.1672V11.0486C55.7226 10.479 55.5713 10.0479 55.2687 9.75518C54.9661 9.4546 54.5897 9.30429 54.1395 9.30429C53.6892 9.30429 53.3128 9.4546 53.0102 9.75518C52.7077 10.0479 52.5564 10.479 52.5564 11.0486V11.1672C52.5564 11.7368 52.7077 12.1719 53.0102 12.4725C53.3128 12.7652 53.6892 12.9116 54.1395 12.9116Z" fill="#D1D1D1"/>
<path d="M60.4105 14.2168C59.6577 14.2168 59.0406 14.0507 58.5594 13.7184C58.0787 13.3862 57.7875 12.9115 57.6863 12.2945L59.037 11.9385C59.0912 12.2154 59.1806 12.433 59.3045 12.5912C59.4367 12.7494 59.5957 12.8641 59.7821 12.9353C59.9757 12.9985 60.1854 13.0302 60.4105 13.0302C60.7518 13.0302 61.0043 12.9709 61.1674 12.8522C61.3301 12.7257 61.4117 12.5714 61.4117 12.3894C61.4117 12.2075 61.3342 12.0691 61.1788 11.9741C61.0239 11.8713 60.7755 11.7882 60.4337 11.725L60.1079 11.6656C59.7041 11.5865 59.3355 11.4797 59.0019 11.3452C58.6684 11.2029 58.4004 11.009 58.1985 10.7638C57.9971 10.5185 57.8959 10.2021 57.8959 9.8145C57.8959 9.22913 58.1055 8.78218 58.5248 8.47365C58.9436 8.15723 59.495 7.99902 60.1776 7.99902C60.822 7.99902 61.3575 8.14539 61.784 8.43808C62.211 8.73076 62.4903 9.11444 62.6225 9.58908L61.2604 10.0162C61.1984 9.71565 61.0704 9.50202 60.8762 9.3755C60.6898 9.24892 60.457 9.1856 60.1776 9.1856C59.8983 9.1856 59.685 9.23702 59.5374 9.33987C59.3902 9.43481 59.3164 9.56929 59.3164 9.74334C59.3164 9.93318 59.3938 10.0755 59.5492 10.1705C59.7041 10.2575 59.9138 10.3248 60.1776 10.3722L60.5034 10.4315C60.9382 10.5107 61.3301 10.6174 61.6797 10.7519C62.0364 10.8785 62.3158 11.0644 62.5177 11.3097C62.7273 11.547 62.8321 11.8713 62.8321 12.2827C62.8321 12.8997 62.6106 13.3783 62.1681 13.7184C61.7339 14.0507 61.1478 14.2168 60.4105 14.2168Z" fill="#D1D1D1"/>
<path d="M65.7934 14.1455C65.3436 14.1455 64.9476 14.0427 64.6063 13.837C64.2727 13.6234 64.0125 13.3307 63.8261 12.9589C63.6402 12.5871 63.5468 12.1599 63.5468 11.6774V8.16504H65.0137V11.5587C65.0137 12.0017 65.1185 12.334 65.3281 12.5555C65.545 12.777 65.8517 12.8877 66.2477 12.8877C66.6975 12.8877 67.047 12.7374 67.2954 12.4368C67.5437 12.1283 67.6677 11.7011 67.6677 11.1553V8.16504H69.1346V14.0506H67.6909V13.2793H67.4818C67.3883 13.4771 67.2138 13.6709 66.9577 13.8607C66.7016 14.0506 66.3133 14.1455 65.7934 14.1455Z" fill="#D1D1D1"/>
<path d="M70.2432 14.0508V8.16521H71.6863V8.806H71.896C71.9966 8.60821 72.1639 8.43815 72.3963 8.29573C72.6292 8.14547 72.9359 8.07031 73.3164 8.07031C73.7274 8.07031 74.0574 8.15337 74.3057 8.31947C74.5541 8.47768 74.7441 8.68731 74.8763 8.94836H75.0854C75.2176 8.69526 75.404 8.48563 75.6446 8.31947C75.8852 8.15337 76.2265 8.07031 76.669 8.07031C77.0258 8.07031 77.348 8.14942 77.6351 8.30763C77.9299 8.45789 78.1628 8.69126 78.3337 9.00773C78.5118 9.31621 78.6012 9.70779 78.6012 10.1825V14.0508H77.1342V10.2893C77.1342 9.96489 77.0532 9.72363 76.89 9.56542C76.7268 9.39931 76.4981 9.31621 76.2033 9.31621C75.8697 9.31621 75.6095 9.427 75.4231 9.64847C75.2449 9.86205 75.1556 10.1706 75.1556 10.574V14.0508H73.6887V10.2893C73.6887 9.96489 73.6071 9.72363 73.4445 9.56542C73.2813 9.39931 73.0526 9.31621 72.7572 9.31621C72.4237 9.31621 72.1639 9.427 71.9775 9.64847C71.7989 9.86205 71.7096 10.1706 71.7096 10.574V14.0508H70.2432Z" fill="#D1D1D1"/>
</g>
<defs>
<clipPath id="clip0_43_1753">
<rect width="79" height="20" fill="white" transform="translate(0.0405273)"/>
</clipPath>
</defs>
</svg>
