<svg width="73" height="19" viewBox="0 0 73 19" fill="none" xmlns="http://www.w3.org/2000/svg">
<path d="M21.4489 5.84705H23.1908V12.8903H21.4489V5.84705ZM23.8818 10.2309C23.8818 8.48898 24.9502 7.44963 26.5992 7.44963C28.2483 7.44963 29.3167 8.48898 29.3167 10.2309C29.3167 11.9729 28.2715 13.018 26.5992 13.018C24.927 13.018 23.8818 12.0019 23.8818 10.2309ZM27.5689 10.2309C27.5689 9.27285 27.1915 8.70963 26.5992 8.70963C26.007 8.70963 25.6354 9.29027 25.6354 10.2309C25.6354 11.1716 26.0012 11.7406 26.5992 11.7406C27.1973 11.7406 27.5689 11.2064 27.5689 10.2367V10.2309ZM29.9728 13.2329H31.645C31.7246 13.4097 31.8592 13.556 32.0287 13.6502C32.1982 13.7443 32.3936 13.7813 32.5857 13.7554C33.2476 13.7554 33.596 13.3954 33.596 12.8729V11.8974H33.5612C33.4224 12.1963 33.1972 12.4468 32.9146 12.6166C32.6321 12.7863 32.3051 12.8675 31.976 12.8496C30.7044 12.8496 29.8625 11.8799 29.8625 10.2135C29.8625 8.54705 30.6638 7.49608 31.9992 7.49608C32.3387 7.48278 32.6741 7.57354 32.9605 7.75615C33.2469 7.93882 33.4707 8.20464 33.6018 8.51801V7.54834H35.3438V12.8322C35.3438 14.1038 34.2231 14.8935 32.5683 14.8935C31.0296 14.8935 30.0715 14.2025 29.9728 13.2387V13.2329ZM33.6018 10.2251C33.6018 9.37737 33.2128 8.84317 32.5973 8.84317C31.9818 8.84317 31.6044 9.37156 31.6044 10.2251C31.6044 11.0787 31.976 11.5606 32.5973 11.5606C33.2186 11.5606 33.6018 11.0903 33.6018 10.2309V10.2251ZM35.9999 10.2251C35.9999 8.48317 37.0683 7.44382 38.7173 7.44382C40.3663 7.44382 41.4405 8.48317 41.4405 10.2251C41.4405 11.967 40.3954 13.0122 38.7173 13.0122C37.0392 13.0122 35.9999 12.0019 35.9999 10.2309V10.2251ZM39.687 10.2251C39.687 9.26705 39.3096 8.70382 38.7173 8.70382C38.125 8.70382 37.7825 9.29027 37.7825 10.2367C37.7825 11.1832 38.1483 11.7464 38.7405 11.7464C39.3328 11.7464 39.687 11.2064 39.687 10.2367V10.2251ZM42.1025 6.28253C42.0979 6.10665 42.1457 5.93339 42.2397 5.78469C42.3337 5.63599 42.4698 5.51856 42.6306 5.44728C42.7915 5.376 42.9698 5.35408 43.1432 5.3843C43.3165 5.41453 43.4769 5.49553 43.6041 5.61705C43.7314 5.73856 43.8197 5.89512 43.8578 6.06688C43.896 6.23863 43.8823 6.41782 43.8184 6.58179C43.7546 6.74571 43.6435 6.88704 43.4993 6.98778C43.3551 7.08852 43.1841 7.14421 43.0083 7.14769C42.8917 7.1557 42.7747 7.1395 42.6646 7.10014C42.5546 7.06077 42.4539 6.9991 42.3688 6.91892C42.2837 6.83879 42.2162 6.74188 42.1703 6.63434C42.1245 6.52687 42.1014 6.41103 42.1025 6.29414V6.28253ZM42.1025 7.55995H43.8444V12.8903H42.1025V7.55995ZM50.1676 10.2251C50.1676 11.967 49.3954 12.9599 48.0715 12.9599C47.732 12.9817 47.3941 12.8987 47.1033 12.7222C46.8125 12.5457 46.583 12.2841 46.4457 11.9729H46.4108V14.5974H44.6689V7.54834H46.4108V8.50059H46.4457C46.5766 8.1842 46.8017 7.91583 47.0906 7.73194C47.3794 7.54805 47.7178 7.45758 48.0599 7.47285C49.3954 7.49608 50.1909 8.49479 50.1909 10.2367L50.1676 10.2251ZM48.4257 10.2251C48.4257 9.37737 48.0367 8.83737 47.427 8.83737C46.8173 8.83737 46.4283 9.38317 46.4225 10.2251C46.4167 11.067 46.8173 11.607 47.427 11.607C48.0367 11.607 48.4257 11.0787 48.4257 10.2367V10.2251ZM53.1579 7.43801C54.6038 7.43801 55.4805 8.12317 55.5212 9.22059H53.936C53.936 8.84317 53.6225 8.60511 53.1405 8.60511C52.6586 8.60511 52.4438 8.79092 52.4438 9.06382C52.4438 9.33672 52.6354 9.42382 53.0244 9.50511L54.1392 9.73156C55.2018 9.95801 55.6547 10.3877 55.6547 11.1948C55.6547 12.298 54.6502 13.0064 53.1696 13.0064C51.6889 13.0064 50.7192 12.298 50.6438 11.2122H52.3218C52.3741 11.607 52.6876 11.8393 53.1986 11.8393C53.7096 11.8393 53.9418 11.6709 53.9418 11.3922C53.9418 11.1135 53.7792 11.0554 53.3612 10.9683L52.3567 10.7535C51.3173 10.5387 50.7715 9.98705 50.7715 9.17414C50.7831 8.12898 51.7179 7.44963 53.1579 7.44963V7.43801ZM61.467 12.8787H59.7889V11.8858H59.7541C59.6618 12.2191 59.4585 12.5109 59.1775 12.7127C58.8965 12.9144 58.555 13.0139 58.2096 12.9948C57.9449 13.0098 57.6801 12.9679 57.4331 12.8718C57.186 12.7757 56.9624 12.6278 56.7775 12.4378C56.5926 12.248 56.4505 12.0205 56.361 11.771C56.2715 11.5215 56.2366 11.2557 56.2586 10.9916V7.54834H58.0005V10.5909C58.0005 11.2238 58.3257 11.5606 58.8657 11.5606C58.9923 11.5608 59.1177 11.5341 59.2332 11.482C59.3482 11.4299 59.4516 11.3537 59.5352 11.2586C59.6182 11.1634 59.6809 11.0515 59.7175 10.9304C59.7541 10.8092 59.7651 10.6816 59.7483 10.5561V7.54834H61.4902L61.467 12.8787ZM62.3089 7.54834H63.9928V8.57608H64.0276C64.1199 8.24714 64.3191 7.9581 64.5932 7.75429C64.8672 7.55048 65.2017 7.4433 65.5431 7.44963C65.8909 7.42181 66.2358 7.52581 66.5105 7.74099C66.7845 7.95618 66.968 8.26671 67.0238 8.61092H67.0586C67.1637 8.26305 67.382 7.96019 67.6787 7.74994C67.9748 7.53968 68.3331 7.43401 68.696 7.44963C68.9329 7.44167 69.1687 7.48365 69.3881 7.57284C69.6082 7.66197 69.8062 7.79639 69.9705 7.96721C70.1348 8.1381 70.2614 8.34161 70.3421 8.56452C70.4223 8.78743 70.4554 9.02486 70.4379 9.26124V12.8903H68.696V9.72576C68.696 9.14511 68.4347 8.87801 67.947 8.87801C67.8384 8.87708 67.7304 8.8995 67.6311 8.94374C67.5318 8.98799 67.443 9.05302 67.371 9.13448C67.299 9.21595 67.245 9.31187 67.213 9.41586C67.1811 9.51992 67.1724 9.62954 67.1863 9.73737V12.8903H65.5315V9.70253C65.5315 9.16834 65.2702 8.87801 64.7941 8.87801C64.6843 8.87807 64.5752 8.90141 64.4753 8.94653C64.3748 8.9917 64.2848 9.05761 64.2123 9.13988C64.1391 9.22216 64.0845 9.31901 64.0514 9.42405C64.0189 9.52903 64.0085 9.63976 64.0218 9.74898V12.8903H62.2799L62.3089 7.54834Z" fill="#D1D1D1"/>
<path d="M16.5773 6.16633C16.2818 5.49066 15.8907 4.861 15.416 4.29665C14.7143 3.43749 13.8386 2.73668 12.8465 2.24035C11.8544 1.74403 10.7684 1.46343 9.66006 1.41703C8.55172 1.37063 7.44612 1.55948 6.416 1.97116C5.38591 2.38283 4.45467 3.00799 3.6836 3.8055C2.91251 4.603 2.31906 5.55476 1.94231 6.59815C1.56556 7.64151 1.41404 8.75287 1.49773 9.859C1.58143 10.9652 1.89844 12.0411 2.42789 13.0158C2.95735 13.9907 3.68725 14.8423 4.56955 15.5147C5.13568 15.9548 5.76124 16.3125 6.42761 16.5773C7.36187 16.9602 8.3618 17.1574 9.37148 17.1579C11.4556 17.1534 13.453 16.3226 14.9256 14.8477C16.3983 13.3729 17.2261 11.3744 17.2276 9.2902C17.2291 8.21513 17.0077 7.15145 16.5773 6.16633ZM9.36567 3.01342C10.2724 3.01332 11.1682 3.2115 11.9902 3.59406C11.7898 3.68068 11.579 3.74117 11.3631 3.77407C10.6527 3.87689 9.99469 4.20669 9.48714 4.71423C8.9796 5.22177 8.6498 5.87984 8.54696 6.5902C8.50185 6.98858 8.32063 7.3592 8.03396 7.63954C7.7473 7.91987 7.37272 8.09267 6.97341 8.12891C6.26305 8.23174 5.60499 8.56154 5.09745 9.06909C4.58992 9.57663 4.26012 10.2347 4.15729 10.945C4.12248 11.3238 3.96085 11.6798 3.69858 11.9554C3.24606 10.9992 3.04277 9.94406 3.10764 8.88822C3.17251 7.83237 3.50343 6.81009 4.0696 5.91647C4.63576 5.02291 5.41878 4.28707 6.3458 3.77746C7.2728 3.26784 8.31366 3.00102 9.37148 3.0018L9.36567 3.01342ZM4.56374 13.3547C4.63342 13.2908 4.7031 13.2328 4.77278 13.1631C5.28935 12.6623 5.62093 12.0012 5.71342 11.2876C5.75092 10.8865 5.93 10.5119 6.21858 10.2308C6.4963 9.9418 6.87006 9.76418 7.26954 9.73149C7.97991 9.62865 8.63795 9.29885 9.14549 8.79131C9.65303 8.28376 9.98284 7.62572 10.0857 6.91536C10.1108 6.49584 10.2908 6.1006 10.5908 5.80633C10.8754 5.52288 11.2527 5.35174 11.6534 5.32438C12.306 5.2346 12.9146 4.94448 13.3954 4.49407C13.9427 4.94817 14.4064 5.49446 14.7657 6.10826C14.7436 6.13805 14.7183 6.16534 14.6902 6.18955C14.413 6.48115 14.0398 6.66266 13.6392 6.70052C12.9281 6.80155 12.2691 7.13078 11.7612 7.63861C11.2534 8.1465 10.9241 8.80553 10.8231 9.51665C10.7822 9.91636 10.6043 10.2897 10.3197 10.5732C10.035 10.8569 9.66105 11.0334 9.26116 11.0728C8.54871 11.1748 7.88822 11.504 7.37772 12.0113C6.86727 12.5186 6.53404 13.1771 6.42761 13.8889C6.39637 14.1727 6.29888 14.4452 6.14309 14.6844C5.54735 14.3307 5.0138 13.8815 4.56374 13.3547ZM9.36567 15.596C8.77649 15.5966 8.1901 15.5145 7.62374 15.3521C7.8175 14.991 7.94344 14.5974 7.99535 14.1908C8.03605 13.792 8.21309 13.4194 8.49656 13.1359C8.78003 12.8525 9.15263 12.6754 9.55148 12.6347C10.2629 12.533 10.9223 12.2038 11.431 11.6961C11.9396 11.1885 12.2703 10.5298 12.3734 9.81858C12.4141 9.41974 12.5912 9.04714 12.8746 8.76367C13.1581 8.4802 13.5307 8.30316 13.9295 8.26245C14.4649 8.19284 14.9752 7.9935 15.416 7.68181C15.6608 8.60962 15.6898 9.58116 15.5008 10.5219C15.3118 11.4627 14.9097 12.3477 14.3256 13.109C13.7415 13.8702 12.9908 14.4876 12.1309 14.9137C11.2712 15.3398 10.3252 15.5633 9.36567 15.567V15.596Z" fill="#D1D1D1"/>
</svg>
